<?xml version="1.0" encoding="UTF-8"?>
<svg xmlns="http://www.w3.org/2000/svg" style="display: none;">

  <symbol id="icon-cosmo" viewBox="0 0 16 17">
    <g clip-path="url(#clip0_cosmo)">
        <path
            d="M8.29656 0.666802L7.99977 0.5L7.70299 0.666802C5.66803 1.81051 4.61688 3.66804 4.10103 5.55008C3.61127 7.33695 3.59166 9.18431 3.67636 10.5703L2.28683 12.7268C2.14554 12.9461 2.13654 13.2255 2.26341 13.4533L3.6971 16.0291C3.93052 16.4484 4.50515 16.5181 4.83205 16.1667L5.56979 15.3735L5.62165 15.4768L5.73001 15.6926L5.95706 15.7745L7.76164 16.4268L7.96399 16.4999L8.16713 16.4291L10.0362 15.7769L10.2678 15.696L10.3779 15.4768L10.4297 15.3735L11.1675 16.1667C11.4944 16.5181 12.069 16.4484 12.3024 16.0291L13.7361 13.4533C13.863 13.2255 13.854 12.9461 13.7127 12.7268L12.323 10.57C12.3998 9.27409 12.378 7.43459 11.8932 5.632C11.3818 3.73075 10.3379 1.81409 8.29656 0.666802ZM4.86072 14.3574L4.99218 14.2235L4.84023 13.9211C4.69006 13.622 4.81069 13.258 5.10964 13.1078C5.4086 12.9576 5.77268 13.0783 5.92283 13.3772L6.26927 14.0669L6.59591 14.7173L7.9711 15.2143L9.40539 14.7138L9.73028 14.0669L10.0767 13.3772C10.2269 13.0783 10.5909 12.9576 10.8899 13.1078C11.1889 13.258 11.3095 13.622 11.1593 13.9211L11.0074 14.2235L11.1388 14.3574L11.1446 14.3633L11.1502 14.3693L11.5816 14.8331L12.5304 13.1286L11.1982 11.0611C11.1294 10.9542 11.0919 10.8231 11.1016 10.6848C11.1877 9.44753 11.1842 7.66036 10.7233 5.94667C10.2916 4.34167 9.47397 2.85106 7.9993 1.90135C6.51906 2.84896 5.70072 4.29678 5.26943 5.87033C4.80784 7.55441 4.80357 9.33907 4.89796 10.6844C4.90757 10.8214 4.87101 10.9529 4.80131 11.0611L3.46917 13.1286L4.41793 14.8331L4.84936 14.3693L4.85496 14.3633L4.86072 14.3574ZM6.99035 8.49546C6.99035 7.93789 7.44235 7.48588 7.99994 7.48588C8.55751 7.48588 9.00952 7.93789 9.00952 8.49546C9.00952 9.05303 8.55751 9.50504 7.99994 9.50504C7.44235 9.50504 6.99035 9.05303 6.99035 8.49546ZM7.99994 6.4763C6.88478 6.4763 5.98077 7.38031 5.98077 8.49546C5.98077 9.61062 6.88478 10.5146 7.99994 10.5146C9.11509 10.5146 10.0191 9.61062 10.0191 8.49546C10.0191 7.38031 9.11509 6.4763 7.99994 6.4763Z" 
            fill="#16A4E3"
            fill-rule="evenodd"
            clip-rule="evenodd"
        />
    </g>
    <defs>
        <clipPath id="clip0_cosmo">
            <rect width="16" height="16" fill="white" transform="translate(0 0.5)" />
        </clipPath>
    </defs>
  </symbol>

  <symbol id="icon-projects" viewBox="0 0 16 17">
    <g clip-path="url(#clip0_projects)">
        <path 
            d="M2.61111 14.2153C1.91667 14.2153 1.3912 14.0417 1.03472 13.6945C0.678241 13.3472 0.5 12.8264 0.5 12.132V4.12501C0.5 3.44908 0.664352 2.93982 0.993056 2.59723C1.32639 2.25464 1.79167 2.08334 2.38889 2.08334H4.25694C4.59028 2.08334 4.8588 2.12038 5.0625 2.19445C5.2662 2.2639 5.48148 2.39121 5.70833 2.5764L6.09722 2.89584C6.27315 3.03936 6.43982 3.14121 6.59722 3.2014C6.75463 3.26158 6.94676 3.29168 7.17361 3.29168H13.375C14.0741 3.29168 14.6019 3.4676 14.9583 3.81945C15.3148 4.16668 15.4931 4.6852 15.4931 5.37501V12.132C15.4931 12.8218 15.3218 13.3403 14.9792 13.6875C14.6412 14.0394 14.169 14.2153 13.5625 14.2153H2.61111ZM2.65972 13.0417H13.3333C13.6435 13.0417 13.8843 12.9583 14.0556 12.7917C14.2269 12.625 14.3125 12.3796 14.3125 12.0556V5.46529C14.3125 5.13658 14.2269 4.8889 14.0556 4.72223C13.8843 4.55557 13.6435 4.47223 13.3333 4.47223H6.86111C6.52778 4.47223 6.25694 4.4352 6.04861 4.36112C5.84028 4.28705 5.625 4.15973 5.40278 3.97918L5.02083 3.65973C4.84028 3.51158 4.6713 3.40973 4.51389 3.35418C4.36111 3.29399 4.1713 3.2639 3.94444 3.2639H2.63194C2.32639 3.2639 2.09259 3.34492 1.93056 3.50695C1.76852 3.66436 1.6875 3.89816 1.6875 4.20834V12.0486C1.6875 12.3773 1.77083 12.625 1.9375 12.7917C2.10417 12.9583 2.34491 13.0417 2.65972 13.0417ZM1.22917 6.90973V5.84029H14.7639V6.90973H1.22917Z"
            fill="#B0B0B0"
        />
    </g>
    <defs>
        <clipPath id="clip0_projects">
            <rect width="16" height="16" fill="white" transform="translate(0 0.5)" />
        </clipPath>
    </defs>
  </symbol>

</svg>
