<svg width="16" height="17" viewBox="0 0 16 17" fill="none" xmlns="http://www.w3.org/2000/svg">
<path d="M5.02778 13.5903V2.82638H6.19445V13.5903H5.02778ZM9.80556 13.5903V2.82638H10.9722V13.5903H9.80556ZM2.34723 14.2986C1.65278 14.2986 1.12732 14.1227 0.770837 13.7708C0.414355 13.4236 0.236115 12.9051 0.236115 12.2153V4.20138C0.236115 3.51156 0.414355 2.99304 0.770837 2.64582C1.12732 2.29397 1.65278 2.11804 2.34723 2.11804H13.6528C14.3565 2.11804 14.8843 2.29397 15.2361 2.64582C15.588 2.99304 15.7639 3.51156 15.7639 4.20138V12.2153C15.7639 12.9051 15.588 13.4236 15.2361 13.7708C14.8843 14.1227 14.3565 14.2986 13.6528 14.2986H2.34723ZM2.39584 13.118H13.6042C13.919 13.118 14.162 13.0347 14.3333 12.868C14.5046 12.7014 14.5903 12.456 14.5903 12.1319V4.28471C14.5903 3.956 14.5046 3.70832 14.3333 3.54165C14.162 3.37499 13.919 3.29165 13.6042 3.29165H2.39584C2.08102 3.29165 1.84028 3.37499 1.67361 3.54165C1.50695 3.70832 1.42361 3.956 1.42361 4.28471V12.1319C1.42361 12.456 1.50695 12.7014 1.67361 12.868C1.84028 13.0347 2.08102 13.118 2.39584 13.118Z" fill="#B0B0B0"/>
</svg>
