<svg width="15" height="14" viewBox="0 0 15 14" fill="none" xmlns="http://www.w3.org/2000/svg">
<path d="M4.5166 13.8652C4.31152 13.8652 4.15202 13.7969 4.03809 13.6602C3.92871 13.528 3.87402 13.3503 3.87402 13.127V11.418H3.51855C2.90332 11.418 2.38151 11.3063 1.95312 11.083C1.5293 10.8597 1.20573 10.5339 0.982422 10.1055C0.759115 9.67708 0.647461 9.15527 0.647461 8.54004V3.50195C0.647461 2.88672 0.759115 2.36491 0.982422 1.93652C1.20573 1.50814 1.5293 1.18229 1.95312 0.958984C2.38151 0.73112 2.90332 0.617188 3.51855 0.617188H11.9336C12.5534 0.617188 13.0752 0.73112 13.499 0.958984C13.9274 1.18685 14.251 1.51497 14.4697 1.94336C14.693 2.36719 14.8047 2.88672 14.8047 3.50195V8.54004C14.8047 9.15072 14.693 9.67025 14.4697 10.0986C14.251 10.527 13.9274 10.8551 13.499 11.083C13.0752 11.3063 12.5534 11.418 11.9336 11.418H7.60645L5.35742 13.4072C5.18424 13.5622 5.03613 13.6761 4.91309 13.749C4.7946 13.8265 4.66243 13.8652 4.5166 13.8652ZM4.75586 12.7988L6.84766 10.7617C6.96159 10.6432 7.07096 10.5658 7.17578 10.5293C7.2806 10.4928 7.41732 10.4746 7.58594 10.4746H11.9268C12.5739 10.4746 13.057 10.3083 13.376 9.97559C13.6995 9.6429 13.8613 9.16439 13.8613 8.54004V3.50195C13.8613 2.87305 13.6995 2.39453 13.376 2.06641C13.057 1.73372 12.5739 1.56738 11.9268 1.56738H3.52539C2.87826 1.56738 2.39518 1.73372 2.07617 2.06641C1.75716 2.39453 1.59766 2.87305 1.59766 3.50195V8.54004C1.59766 9.16439 1.75716 9.6429 2.07617 9.97559C2.39518 10.3083 2.87826 10.4746 3.52539 10.4746H4.30469C4.46875 10.4746 4.58496 10.5088 4.65332 10.5771C4.72168 10.6455 4.75586 10.7594 4.75586 10.9189V12.7988ZM4.35254 4.19922C4.26139 4.19922 4.18164 4.16732 4.11328 4.10352C4.04492 4.03516 4.01074 3.95085 4.01074 3.85059C4.01074 3.75944 4.04492 3.67969 4.11328 3.61133C4.18164 3.54297 4.26139 3.50879 4.35254 3.50879H10.9697C11.0654 3.50879 11.1475 3.54297 11.2158 3.61133C11.2842 3.67969 11.3184 3.75944 11.3184 3.85059C11.3184 3.95085 11.2842 4.03516 11.2158 4.10352C11.1475 4.16732 11.0654 4.19922 10.9697 4.19922H4.35254ZM4.35254 6.30469C4.26139 6.30469 4.18164 6.27051 4.11328 6.20215C4.04492 6.13379 4.01074 6.05176 4.01074 5.95605C4.01074 5.86035 4.04492 5.77832 4.11328 5.70996C4.18164 5.6416 4.26139 5.60742 4.35254 5.60742H10.9697C11.0654 5.60742 11.1475 5.6416 11.2158 5.70996C11.2842 5.77832 11.3184 5.86035 11.3184 5.95605C11.3184 6.05176 11.2842 6.13379 11.2158 6.20215C11.1475 6.27051 11.0654 6.30469 10.9697 6.30469H4.35254ZM4.35254 8.41016C4.26139 8.41016 4.18164 8.37598 4.11328 8.30762C4.04492 8.23926 4.01074 8.15951 4.01074 8.06836C4.01074 7.9681 4.04492 7.88379 4.11328 7.81543C4.18164 7.74707 4.26139 7.71289 4.35254 7.71289H8.67285C8.764 7.71289 8.84375 7.74707 8.91211 7.81543C8.98047 7.88379 9.01465 7.9681 9.01465 8.06836C9.01465 8.15951 8.98047 8.23926 8.91211 8.30762C8.84375 8.37598 8.764 8.41016 8.67285 8.41016H4.35254Z" fill="#7E7E7E"/>
</svg>
