<svg width="16" height="17" viewBox="0 0 16 17" fill="none" xmlns="http://www.w3.org/2000/svg">
<path d="M3.19445 15.5556C2.49538 15.5556 1.9676 15.3796 1.61112 15.0278C1.25927 14.6759 1.08334 14.1574 1.08334 13.4722V6.72223C1.08334 6.02779 1.25927 5.50695 1.61112 5.15973C1.9676 4.80788 2.49538 4.63195 3.19445 4.63195H12.7986C13.4977 4.63195 14.0232 4.80788 14.375 5.15973C14.7315 5.51158 14.9097 6.03242 14.9097 6.72223V13.4722C14.9097 14.1574 14.7315 14.6759 14.375 15.0278C14.0232 15.3796 13.4977 15.5556 12.7986 15.5556H3.19445ZM3.24307 14.375H12.7431C13.0579 14.375 13.3009 14.2917 13.4722 14.125C13.6435 13.963 13.7292 13.7153 13.7292 13.382V6.80557C13.7292 6.47686 13.6435 6.22918 13.4722 6.06251C13.3009 5.89584 13.0579 5.81251 12.7431 5.81251H3.24307C2.92825 5.81251 2.68751 5.89584 2.52084 6.06251C2.35418 6.22918 2.27084 6.47686 2.27084 6.80557V13.382C2.27084 13.7153 2.35418 13.963 2.52084 14.125C2.68751 14.2917 2.92825 14.375 3.24307 14.375ZM2.50695 3.56251C2.54862 3.25695 2.65047 3.02316 2.81251 2.86112C2.97918 2.69445 3.23381 2.61112 3.5764 2.61112H12.4236C12.7616 2.61112 13.0116 2.69445 13.1736 2.86112C13.3403 3.02316 13.4491 3.25695 13.5 3.56251H2.50695ZM3.84723 1.70834C3.87038 1.42131 3.96297 1.20371 4.12501 1.05557C4.29168 0.907418 4.5301 0.833344 4.84029 0.833344H11.1597C11.4699 0.833344 11.7083 0.907418 11.875 1.05557C12.0417 1.20371 12.1343 1.42131 12.1528 1.70834H3.84723ZM3.95834 14.9028C4.05094 14.4954 4.2176 14.1204 4.45834 13.7778C4.69908 13.4352 4.9977 13.1389 5.35418 12.8889C5.71066 12.6343 6.11344 12.4375 6.56251 12.2986C7.01621 12.1597 7.49538 12.0903 8.00001 12.0903C8.50927 12.0903 8.98612 12.1597 9.43057 12.2986C9.87964 12.4375 10.2847 12.6343 10.6458 12.8889C11.007 13.1389 11.3079 13.4352 11.5486 13.7778C11.7894 14.1204 11.9537 14.4954 12.0417 14.9028H3.95834ZM8.00001 11.1181C7.62038 11.1134 7.27779 11.0139 6.97223 10.8195C6.66668 10.625 6.42362 10.3634 6.24307 10.0347C6.06251 9.7014 5.96992 9.32177 5.96529 8.89584C5.96529 8.50233 6.05557 8.14121 6.23612 7.81251C6.41668 7.47918 6.65973 7.21297 6.96529 7.0139C7.27547 6.81483 7.62038 6.71529 8.00001 6.71529C8.37964 6.71529 8.72223 6.81483 9.02779 7.0139C9.33797 7.21297 9.58334 7.47918 9.7639 7.81251C9.94446 8.14121 10.0347 8.50233 10.0347 8.89584C10.0347 9.32177 9.94446 9.70371 9.7639 10.0417C9.58334 10.375 9.33797 10.6389 9.02779 10.8333C8.72223 11.0278 8.37964 11.1227 8.00001 11.1181Z" fill="#B0B0B0"/>
</svg>
