<svg width="16" height="17" viewBox="0 0 16 17" fill="none" xmlns="http://www.w3.org/2000/svg">
    <path 
    d="M2.61111 14.2153C1.91667 14.2153 1.3912 14.0417 1.03472 13.6945C0.678241 13.3472 0.5 12.8264 0.5 12.132V4.12501C0.5 3.44908 0.664352 2.93982 0.993056 2.59723C1.32639 2.25464 1.79167 2.08334 2.38889 2.08334H4.25694C4.59028 2.08334 4.8588 2.12038 5.0625 2.19445C5.2662 2.2639 5.48148 2.39121 5.70833 2.5764L6.09722 2.89584C6.27315 3.03936 6.43982 3.14121 6.59722 3.2014C6.75463 3.26158 6.94676 3.29168 7.17361 3.29168H13.375C14.0741 3.29168 14.6019 3.4676 14.9583 3.81945C15.3148 4.16668 15.4931 4.6852 15.4931 5.37501V12.132C15.4931 12.8218 15.3218 13.3403 14.9792 13.6875C14.6412 14.0394 14.169 14.2153 13.5625 14.2153H2.61111ZM2.65972 13.0417H13.3333C13.6435 13.0417 13.8843 12.9583 14.0556 12.7917C14.2269 12.625 14.3125 12.3796 14.3125 12.0556V5.46529C14.3125 5.13658 14.2269 4.8889 14.0556 4.72223C13.8843 4.55557 13.6435 4.47223 13.3333 4.47223H6.86111C6.52778 4.47223 6.25694 4.4352 6.04861 4.36112C5.84028 4.28705 5.625 4.15973 5.40278 3.97918L5.02083 3.65973C4.84028 3.51158 4.6713 3.40973 4.51389 3.35418C4.36111 3.29399 4.1713 3.2639 3.94444 3.2639H2.63194C2.32639 3.2639 2.09259 3.34492 1.93056 3.50695C1.76852 3.66436 1.6875 3.89816 1.6875 4.20834V12.0486C1.6875 12.3773 1.77083 12.625 1.9375 12.7917C2.10417 12.9583 2.34491 13.0417 2.65972 13.0417ZM1.22917 6.90973V5.84029H14.7639V6.90973H1.22917Z"
    fill="#B0B0B0"/>
</svg>
