<svg width="16" height="17" viewBox="0 0 16 17" fill="none" xmlns="http://www.w3.org/2000/svg">
<path d="M3.49305 14.2986C2.79861 14.2986 2.27315 14.125 1.91666 13.7778C1.56018 13.4305 1.38194 12.9097 1.38194 12.2153V4.20832C1.38194 3.51388 1.56018 2.99304 1.91666 2.64582C2.27315 2.29397 2.79861 2.11804 3.49305 2.11804H12.5C13.2037 2.11804 13.7315 2.29397 14.0833 2.64582C14.4352 2.99767 14.6111 3.5185 14.6111 4.20832V12.2153C14.6111 12.9051 14.4352 13.4236 14.0833 13.7708C13.7315 14.1227 13.2037 14.2986 12.5 14.2986H3.49305ZM3.4375 13.125H12.5486C12.831 13.125 13.0486 13.0509 13.2014 12.9028C13.3588 12.7546 13.4375 12.5301 13.4375 12.2292V6.1111C13.4375 5.8148 13.3588 5.59258 13.2014 5.44443C13.0486 5.29628 12.831 5.22221 12.5486 5.22221H3.4375C3.15509 5.22221 2.93981 5.29628 2.79166 5.44443C2.64352 5.59258 2.56944 5.8148 2.56944 6.1111V12.2292C2.56944 12.5301 2.64352 12.7546 2.79166 12.9028C2.93981 13.0509 3.15509 13.125 3.4375 13.125ZM6.72917 7.53471C6.61342 7.53471 6.53009 7.51388 6.47917 7.47221C6.43287 7.43054 6.40972 7.35184 6.40972 7.2361V6.85415C6.40972 6.73841 6.43287 6.65971 6.47917 6.61804C6.53009 6.57175 6.61342 6.5486 6.72917 6.5486H7.11111C7.22685 6.5486 7.30555 6.57175 7.34722 6.61804C7.39352 6.65971 7.41667 6.73841 7.41667 6.85415V7.2361C7.41667 7.35184 7.39352 7.43054 7.34722 7.47221C7.30555 7.51388 7.22685 7.53471 7.11111 7.53471H6.72917ZM8.88889 7.53471C8.77315 7.53471 8.69213 7.51388 8.64583 7.47221C8.60417 7.43054 8.58333 7.35184 8.58333 7.2361V6.85415C8.58333 6.73841 8.60417 6.65971 8.64583 6.61804C8.69213 6.57175 8.77315 6.5486 8.88889 6.5486H9.27778C9.39352 6.5486 9.47453 6.57175 9.52083 6.61804C9.56713 6.65971 9.59028 6.73841 9.59028 6.85415V7.2361C9.59028 7.35184 9.56713 7.43054 9.52083 7.47221C9.47453 7.51388 9.39352 7.53471 9.27778 7.53471H8.88889ZM11.0556 7.53471C10.9352 7.53471 10.8519 7.51388 10.8056 7.47221C10.7639 7.43054 10.7431 7.35184 10.7431 7.2361V6.85415C10.7431 6.73841 10.7639 6.65971 10.8056 6.61804C10.8519 6.57175 10.9352 6.5486 11.0556 6.5486H11.4444C11.5602 6.5486 11.6389 6.57175 11.6806 6.61804C11.7269 6.65971 11.75 6.73841 11.75 6.85415V7.2361C11.75 7.35184 11.7269 7.43054 11.6806 7.47221C11.6389 7.51388 11.5602 7.53471 11.4444 7.53471H11.0556ZM4.5625 9.6736C4.44213 9.6736 4.35879 9.65276 4.3125 9.6111C4.27083 9.5648 4.25 9.48378 4.25 9.36804V8.97915C4.25 8.86341 4.27083 8.78471 4.3125 8.74304C4.35879 8.70138 4.44213 8.68054 4.5625 8.68054H4.94444C5.06481 8.68054 5.14583 8.70138 5.1875 8.74304C5.23379 8.78471 5.25694 8.86341 5.25694 8.97915V9.36804C5.25694 9.48378 5.23379 9.5648 5.1875 9.6111C5.14583 9.65276 5.06481 9.6736 4.94444 9.6736H4.5625ZM6.72917 9.6736C6.61342 9.6736 6.53009 9.65276 6.47917 9.6111C6.43287 9.5648 6.40972 9.48378 6.40972 9.36804V8.97915C6.40972 8.86341 6.43287 8.78471 6.47917 8.74304C6.53009 8.70138 6.61342 8.68054 6.72917 8.68054H7.11111C7.22685 8.68054 7.30555 8.70138 7.34722 8.74304C7.39352 8.78471 7.41667 8.86341 7.41667 8.97915V9.36804C7.41667 9.48378 7.39352 9.5648 7.34722 9.6111C7.30555 9.65276 7.22685 9.6736 7.11111 9.6736H6.72917ZM8.88889 9.6736C8.77315 9.6736 8.69213 9.65276 8.64583 9.6111C8.60417 9.5648 8.58333 9.48378 8.58333 9.36804V8.97915C8.58333 8.86341 8.60417 8.78471 8.64583 8.74304C8.69213 8.70138 8.77315 8.68054 8.88889 8.68054H9.27778C9.39352 8.68054 9.47453 8.70138 9.52083 8.74304C9.56713 8.78471 9.59028 8.86341 9.59028 8.97915V9.36804C9.59028 9.48378 9.56713 9.5648 9.52083 9.6111C9.47453 9.65276 9.39352 9.6736 9.27778 9.6736H8.88889ZM11.0556 9.6736C10.9352 9.6736 10.8519 9.65276 10.8056 9.6111C10.7639 9.5648 10.7431 9.48378 10.7431 9.36804V8.97915C10.7431 8.86341 10.7639 8.78471 10.8056 8.74304C10.8519 8.70138 10.9352 8.68054 11.0556 8.68054H11.4444C11.5602 8.68054 11.6389 8.70138 11.6806 8.74304C11.7269 8.78471 11.75 8.86341 11.75 8.97915V9.36804C11.75 9.48378 11.7269 9.5648 11.6806 9.6111C11.6389 9.65276 11.5602 9.6736 11.4444 9.6736H11.0556ZM4.5625 11.7986C4.44213 11.7986 4.35879 11.7778 4.3125 11.7361C4.27083 11.6944 4.25 11.6157 4.25 11.5V11.118C4.25 10.9977 4.27083 10.9167 4.3125 10.875C4.35879 10.8333 4.44213 10.8125 4.5625 10.8125H4.94444C5.06481 10.8125 5.14583 10.8333 5.1875 10.875C5.23379 10.9167 5.25694 10.9977 5.25694 11.118V11.5C5.25694 11.6157 5.23379 11.6944 5.1875 11.7361C5.14583 11.7778 5.06481 11.7986 4.94444 11.7986H4.5625ZM6.72917 11.7986C6.61342 11.7986 6.53009 11.7778 6.47917 11.7361C6.43287 11.6944 6.40972 11.6157 6.40972 11.5V11.118C6.40972 10.9977 6.43287 10.9167 6.47917 10.875C6.53009 10.8333 6.61342 10.8125 6.72917 10.8125H7.11111C7.22685 10.8125 7.30555 10.8333 7.34722 10.875C7.39352 10.9167 7.41667 10.9977 7.41667 11.118V11.5C7.41667 11.6157 7.39352 11.6944 7.34722 11.7361C7.30555 11.7778 7.22685 11.7986 7.11111 11.7986H6.72917ZM8.88889 11.7986C8.77315 11.7986 8.69213 11.7778 8.64583 11.7361C8.60417 11.6944 8.58333 11.6157 8.58333 11.5V11.118C8.58333 10.9977 8.60417 10.9167 8.64583 10.875C8.69213 10.8333 8.77315 10.8125 8.88889 10.8125H9.27778C9.39352 10.8125 9.47453 10.8333 9.52083 10.875C9.56713 10.9167 9.59028 10.9977 9.59028 11.118V11.5C9.59028 11.6157 9.56713 11.6944 9.52083 11.7361C9.47453 11.7778 9.39352 11.7986 9.27778 11.7986H8.88889Z" fill="#B0B0B0"/>
</svg>
