<svg width="16" height="17" viewBox="0 0 16 17" fill="none" xmlns="http://www.w3.org/2000/svg">
<path d="M8 11.4795C7.88184 11.4795 7.7762 11.4347 7.68311 11.3452L3.78906 7.30615C3.74967 7.26676 3.71745 7.22201 3.69238 7.17188C3.6709 7.12174 3.66016 7.06803 3.66016 7.01074C3.66016 6.92839 3.67806 6.85677 3.71387 6.7959C3.75326 6.73145 3.80339 6.68132 3.86426 6.64551C3.92871 6.60612 4.00033 6.58643 4.0791 6.58643C4.19368 6.58643 4.29215 6.6276 4.37451 6.70996L8.25781 10.7114H7.74756L11.6201 6.70996C11.7061 6.6276 11.8063 6.58643 11.9209 6.58643C11.9997 6.58643 12.0713 6.60612 12.1357 6.64551C12.2002 6.68132 12.2503 6.73145 12.2861 6.7959C12.3219 6.85677 12.3398 6.92839 12.3398 7.01074C12.3398 7.12174 12.2987 7.22021 12.2163 7.30615L8.31152 11.3398C8.27214 11.3864 8.22559 11.4222 8.17188 11.4473C8.11816 11.4688 8.06087 11.4795 8 11.4795Z" fill="#B0B0B0"/>
</svg>
