<svg width="16" height="17" viewBox="0 0 16 17" fill="none" xmlns="http://www.w3.org/2000/svg">
<path d="M2.4963 8.9963C2.36296 8.9963 2.24691 8.94938 2.14815 8.85556C2.04938 8.75679 2 8.63827 2 8.5C2 8.36173 2.04938 8.24321 2.14815 8.14444C2.24691 8.04568 2.36296 7.9963 2.4963 7.9963H13.4963C13.6346 7.9963 13.7531 8.04568 13.8519 8.14444C13.9506 8.24321 14 8.36173 14 8.5C14 8.63827 13.9506 8.75679 13.8519 8.85556C13.7531 8.94938 13.6346 8.9963 13.4963 8.9963H2.4963ZM8 14.5C7.86173 14.5 7.74321 14.4506 7.64444 14.3519C7.55062 14.2531 7.5037 14.137 7.5037 14.0037V2.9963C7.5037 2.86296 7.55062 2.74691 7.64444 2.64815C7.74321 2.54938 7.86173 2.5 8 2.5C8.13827 2.5 8.25679 2.54938 8.35556 2.64815C8.45432 2.74691 8.5037 2.86296 8.5037 2.9963V14.0037C8.5037 14.137 8.45432 14.2531 8.35556 14.3519C8.25679 14.4506 8.13827 14.5 8 14.5Z" fill="#16A4E3"/>
</svg>
