<svg width="17" height="16" viewBox="0 0 17 16" fill="none" xmlns="http://www.w3.org/2000/svg">
<path d="M8.5036 15C7.54289 15 6.63982 14.8151 5.79439 14.4452C4.95377 14.0801 4.21161 13.5757 3.56794 12.9321C2.92426 12.2884 2.41748 11.5462 2.04761 10.7056C1.68254 9.86018 1.5 8.95711 1.5 7.9964C1.5 7.04049 1.68254 6.13982 2.04761 5.29439C2.41268 4.44896 2.91705 3.70441 3.56073 3.06073C4.20921 2.41705 4.95377 1.91268 5.79439 1.54761C6.63982 1.18254 7.54049 1 8.4964 1C9.45231 1 10.353 1.18254 11.1984 1.54761C12.0438 1.91268 12.7884 2.41705 13.4321 3.06073C14.0757 3.70441 14.5801 4.44896 14.9452 5.29439C15.3151 6.13982 15.5 7.04049 15.5 7.9964C15.5 8.95711 15.3175 9.86018 14.9524 10.7056C14.5873 11.5462 14.0829 12.2884 13.4393 12.9321C12.7956 13.5757 12.051 14.0801 11.2056 14.4452C10.3602 14.8151 9.45951 15 8.5036 15ZM6.49331 10.7488H7.21384C7.39158 10.7488 7.52367 10.7056 7.61014 10.6191C7.6966 10.5327 7.73984 10.4174 7.73984 10.2733V5.69789C7.73984 5.55859 7.6966 5.4457 7.61014 5.35924C7.52367 5.26797 7.39158 5.22234 7.21384 5.22234H6.49331C6.32038 5.22234 6.19068 5.26797 6.10422 5.35924C6.01776 5.4457 5.97452 5.55859 5.97452 5.69789V10.2733C5.97452 10.4174 6.01776 10.5327 6.10422 10.6191C6.19068 10.7056 6.32038 10.7488 6.49331 10.7488ZM9.80057 10.7488H10.5211C10.6892 10.7488 10.8165 10.7056 10.903 10.6191C10.9894 10.5327 11.0327 10.4174 11.0327 10.2733V5.69789C11.0327 5.55859 10.9894 5.4457 10.903 5.35924C10.8165 5.26797 10.6892 5.22234 10.5211 5.22234H9.80057C9.62283 5.22234 9.49074 5.26797 9.40427 5.35924C9.31781 5.4457 9.27458 5.55859 9.27458 5.69789V10.2733C9.27458 10.4174 9.31781 10.5327 9.40427 10.6191C9.49074 10.7056 9.62283 10.7488 9.80057 10.7488Z" fill="#7E7E7E"/>
</svg>
