<svg width="12" height="12" viewBox="0 0 12 12" fill="none" xmlns="http://www.w3.org/2000/svg">
<path d="M3.60427 6.6285C3.48898 6.6285 3.39234 6.58948 3.31434 6.51145C3.23635 6.43342 3.19736 6.33842 3.19736 6.22646C3.19736 6.1145 3.23635 6.01951 3.31434 5.94148C3.39234 5.86344 3.48898 5.82443 3.60427 5.82443H5.59308V3.11196C5.59308 3 5.63208 2.905 5.71007 2.82697C5.78806 2.74894 5.88301 2.70992 5.99491 2.70992C6.11021 2.70992 6.20515 2.74894 6.27976 2.82697C6.35775 2.905 6.39674 3 6.39674 3.11196V6.22646C6.39674 6.33842 6.35775 6.43342 6.27976 6.51145C6.20515 6.58948 6.11021 6.6285 5.99491 6.6285H3.60427ZM6 11C5.31502 11 4.67074 10.8694 4.06714 10.6081C3.46355 10.3469 2.93116 9.98558 2.46999 9.52417C2.01221 9.06616 1.65276 8.5352 1.39166 7.9313C1.13055 7.3274 1 6.68278 1 5.99746C1 5.31213 1.13055 4.66921 1.39166 4.0687C1.65276 3.4648 2.01221 2.93215 2.46999 2.47074C2.93116 2.00933 3.46355 1.6497 4.06714 1.39186C4.67074 1.13062 5.31333 1 5.99491 1C6.67989 1 7.32418 1.13062 7.92777 1.39186C8.53137 1.6497 9.06205 2.00933 9.51984 2.47074C9.98101 2.93215 10.3421 3.4648 10.6033 4.0687C10.8678 4.66921 11 5.31213 11 5.99746C11 6.68278 10.8694 7.3274 10.6083 7.9313C10.3472 8.5352 9.9861 9.06616 9.52492 9.52417C9.06375 9.98558 8.53137 10.3469 7.92777 10.6081C7.32757 10.8694 6.68498 11 6 11ZM6 9.94656C6.54934 9.94656 7.06138 9.84478 7.53611 9.64122C8.01424 9.43766 8.43303 9.15606 8.79247 8.79644C9.15531 8.43342 9.43845 8.01272 9.64191 7.53435C9.84537 7.05598 9.9471 6.54368 9.9471 5.99746C9.9471 5.45123 9.84537 4.93893 9.64191 4.46056C9.43845 3.98219 9.15531 3.56319 8.79247 3.20356C8.43303 2.84054 8.01424 2.55725 7.53611 2.35369C7.05799 2.15013 6.54425 2.04835 5.99491 2.04835C5.44897 2.04835 4.93693 2.15013 4.4588 2.35369C3.98406 2.55725 3.56528 2.84054 3.20244 3.20356C2.843 3.56319 2.56155 3.98219 2.35809 4.46056C2.15463 4.93893 2.0529 5.45123 2.0529 5.99746C2.0529 6.54368 2.15463 7.05598 2.35809 7.53435C2.56155 8.01272 2.843 8.43342 3.20244 8.79644C3.56528 9.15606 3.98576 9.43766 4.46389 9.64122C4.94201 9.84478 5.45405 9.94656 6 9.94656Z" fill="#B0B0B0"/>
</svg>
