<?xml version="1.0" encoding="UTF-8"?>
<!-- Sprite with icons -->
  <svg xmlns="http://www.w3.org/2000/svg" style="display: none;">

    <!-- Header -->
    <!-- B0B0B0 -->
    <!-- 16A4E3 -->
    <symbol id="icon-head-cosmo" viewBox="0 0 16 17">
      <g clip-path="url(#clip0_head-cosmo)">
        <path
          d="M8.29656 0.666802L7.99977 0.5L7.70299 0.666802C5.66803 1.81051 4.61688 3.66804 4.10103 5.55008C3.61127 7.33695 3.59166 9.18431 3.67636 10.5703L2.28683 12.7268C2.14554 12.9461 2.13654 13.2255 2.26341 13.4533L3.6971 16.0291C3.93052 16.4484 4.50515 16.5181 4.83205 16.1667L5.56979 15.3735L5.62165 15.4768L5.73001 15.6926L5.95706 15.7745L7.76164 16.4268L7.96399 16.4999L8.16713 16.4291L10.0362 15.7769L10.2678 15.696L10.3779 15.4768L10.4297 15.3735L11.1675 16.1667C11.4944 16.5181 12.069 16.4484 12.3024 16.0291L13.7361 13.4533C13.863 13.2255 13.854 12.9461 13.7127 12.7268L12.323 10.57C12.3998 9.27409 12.378 7.43459 11.8932 5.632C11.3818 3.73075 10.3379 1.81409 8.29656 0.666802ZM4.86072 14.3574L4.99218 14.2235L4.84023 13.9211C4.69006 13.622 4.81069 13.258 5.10964 13.1078C5.4086 12.9576 5.77268 13.0783 5.92283 13.3772L6.26927 14.0669L6.59591 14.7173L7.9711 15.2143L9.40539 14.7138L9.73028 14.0669L10.0767 13.3772C10.2269 13.0783 10.5909 12.9576 10.8899 13.1078C11.1889 13.258 11.3095 13.622 11.1593 13.9211L11.0074 14.2235L11.1388 14.3574L11.1446 14.3633L11.1502 14.3693L11.5816 14.8331L12.5304 13.1286L11.1982 11.0611C11.1294 10.9542 11.0919 10.8231 11.1016 10.6848C11.1877 9.44753 11.1842 7.66036 10.7233 5.94667C10.2916 4.34167 9.47397 2.85106 7.9993 1.90135C6.51906 2.84896 5.70072 4.29678 5.26943 5.87033C4.80784 7.55441 4.80357 9.33907 4.89796 10.6844C4.90757 10.8214 4.87101 10.9529 4.80131 11.0611L3.46917 13.1286L4.41793 14.8331L4.84936 14.3693L4.85496 14.3633L4.86072 14.3574ZM6.99035 8.49546C6.99035 7.93789 7.44235 7.48588 7.99994 7.48588C8.55751 7.48588 9.00952 7.93789 9.00952 8.49546C9.00952 9.05303 8.55751 9.50504 7.99994 9.50504C7.44235 9.50504 6.99035 9.05303 6.99035 8.49546ZM7.99994 6.4763C6.88478 6.4763 5.98077 7.38031 5.98077 8.49546C5.98077 9.61062 6.88478 10.5146 7.99994 10.5146C9.11509 10.5146 10.0191 9.61062 10.0191 8.49546C10.0191 7.38031 9.11509 6.4763 7.99994 6.4763Z"
          fill="currentColor" fill-rule="evenodd" clip-rule="evenodd" />
      </g>
    </symbol>

    <symbol id="icon-head-projects" viewBox="0 0 16 17">
      <g clip-path="url(#clip0_head-projects)">
        <path
          d="M2.61111 14.2153C1.91667 14.2153 1.3912 14.0417 1.03472 13.6945C0.678241 13.3472 0.5 12.8264 0.5 12.132V4.12501C0.5 3.44908 0.664352 2.93982 0.993056 2.59723C1.32639 2.25464 1.79167 2.08334 2.38889 2.08334H4.25694C4.59028 2.08334 4.8588 2.12038 5.0625 2.19445C5.2662 2.2639 5.48148 2.39121 5.70833 2.5764L6.09722 2.89584C6.27315 3.03936 6.43982 3.14121 6.59722 3.2014C6.75463 3.26158 6.94676 3.29168 7.17361 3.29168H13.375C14.0741 3.29168 14.6019 3.4676 14.9583 3.81945C15.3148 4.16668 15.4931 4.6852 15.4931 5.37501V12.132C15.4931 12.8218 15.3218 13.3403 14.9792 13.6875C14.6412 14.0394 14.169 14.2153 13.5625 14.2153H2.61111ZM2.65972 13.0417H13.3333C13.6435 13.0417 13.8843 12.9583 14.0556 12.7917C14.2269 12.625 14.3125 12.3796 14.3125 12.0556V5.46529C14.3125 5.13658 14.2269 4.8889 14.0556 4.72223C13.8843 4.55557 13.6435 4.47223 13.3333 4.47223H6.86111C6.52778 4.47223 6.25694 4.4352 6.04861 4.36112C5.84028 4.28705 5.625 4.15973 5.40278 3.97918L5.02083 3.65973C4.84028 3.51158 4.6713 3.40973 4.51389 3.35418C4.36111 3.29399 4.1713 3.2639 3.94444 3.2639H2.63194C2.32639 3.2639 2.09259 3.34492 1.93056 3.50695C1.76852 3.66436 1.6875 3.89816 1.6875 4.20834V12.0486C1.6875 12.3773 1.77083 12.625 1.9375 12.7917C2.10417 12.9583 2.34491 13.0417 2.65972 13.0417ZM1.22917 6.90973V5.84029H14.7639V6.90973H1.22917Z"
          fill="currentColor" />
      </g>
    </symbol>

    <symbol id="icon-head-team" viewBox="0 0 16 17">
      <g clip-path="url(#clip0_head-team)">
        <path
          d="M3.19445 15.5556C2.49538 15.5556 1.9676 15.3796 1.61112 15.0278C1.25927 14.6759 1.08334 14.1574 1.08334 13.4722V6.72223C1.08334 6.02779 1.25927 5.50695 1.61112 5.15973C1.9676 4.80788 2.49538 4.63195 3.19445 4.63195H12.7986C13.4977 4.63195 14.0232 4.80788 14.375 5.15973C14.7315 5.51158 14.9097 6.03242 14.9097 6.72223V13.4722C14.9097 14.1574 14.7315 14.6759 14.375 15.0278C14.0232 15.3796 13.4977 15.5556 12.7986 15.5556H3.19445ZM3.24307 14.375H12.7431C13.0579 14.375 13.3009 14.2917 13.4722 14.125C13.6435 13.963 13.7292 13.7153 13.7292 13.382V6.80557C13.7292 6.47686 13.6435 6.22918 13.4722 6.06251C13.3009 5.89584 13.0579 5.81251 12.7431 5.81251H3.24307C2.92825 5.81251 2.68751 5.89584 2.52084 6.06251C2.35418 6.22918 2.27084 6.47686 2.27084 6.80557V13.382C2.27084 13.7153 2.35418 13.963 2.52084 14.125C2.68751 14.2917 2.92825 14.375 3.24307 14.375ZM2.50695 3.56251C2.54862 3.25695 2.65047 3.02316 2.81251 2.86112C2.97918 2.69445 3.23381 2.61112 3.5764 2.61112H12.4236C12.7616 2.61112 13.0116 2.69445 13.1736 2.86112C13.3403 3.02316 13.4491 3.25695 13.5 3.56251H2.50695ZM3.84723 1.70834C3.87038 1.42131 3.96297 1.20371 4.12501 1.05557C4.29168 0.907418 4.5301 0.833344 4.84029 0.833344H11.1597C11.4699 0.833344 11.7083 0.907418 11.875 1.05557C12.0417 1.20371 12.1343 1.42131 12.1528 1.70834H3.84723ZM3.95834 14.9028C4.05094 14.4954 4.2176 14.1204 4.45834 13.7778C4.69908 13.4352 4.9977 13.1389 5.35418 12.8889C5.71066 12.6343 6.11344 12.4375 6.56251 12.2986C7.01621 12.1597 7.49538 12.0903 8.00001 12.0903C8.50927 12.0903 8.98612 12.1597 9.43057 12.2986C9.87964 12.4375 10.2847 12.6343 10.6458 12.8889C11.007 13.1389 11.3079 13.4352 11.5486 13.7778C11.7894 14.1204 11.9537 14.4954 12.0417 14.9028H3.95834ZM8.00001 11.1181C7.62038 11.1134 7.27779 11.0139 6.97223 10.8195C6.66668 10.625 6.42362 10.3634 6.24307 10.0347C6.06251 9.7014 5.96992 9.32177 5.96529 8.89584C5.96529 8.50233 6.05557 8.14121 6.23612 7.81251C6.41668 7.47918 6.65973 7.21297 6.96529 7.0139C7.27547 6.81483 7.62038 6.71529 8.00001 6.71529C8.37964 6.71529 8.72223 6.81483 9.02779 7.0139C9.33797 7.21297 9.58334 7.47918 9.7639 7.81251C9.94446 8.14121 10.0347 8.50233 10.0347 8.89584C10.0347 9.32177 9.94446 9.70371 9.7639 10.0417C9.58334 10.375 9.33797 10.6389 9.02779 10.8333C8.72223 11.0278 8.37964 11.1227 8.00001 11.1181Z"
          fill="currentColor" />
      </g>
    </symbol>

    <symbol id="icon-head-kanban" viewBox="0 0 16 17">
      <g clip-path="url(#clip0_head-kanban)">
        <path
          d="M5.02778 13.5903V2.82638H6.19445V13.5903H5.02778ZM9.80556 13.5903V2.82638H10.9722V13.5903H9.80556ZM2.34723 14.2986C1.65278 14.2986 1.12732 14.1227 0.770837 13.7708C0.414355 13.4236 0.236115 12.9051 0.236115 12.2153V4.20138C0.236115 3.51156 0.414355 2.99304 0.770837 2.64582C1.12732 2.29397 1.65278 2.11804 2.34723 2.11804H13.6528C14.3565 2.11804 14.8843 2.29397 15.2361 2.64582C15.588 2.99304 15.7639 3.51156 15.7639 4.20138V12.2153C15.7639 12.9051 15.588 13.4236 15.2361 13.7708C14.8843 14.1227 14.3565 14.2986 13.6528 14.2986H2.34723ZM2.39584 13.118H13.6042C13.919 13.118 14.162 13.0347 14.3333 12.868C14.5046 12.7014 14.5903 12.456 14.5903 12.1319V4.28471C14.5903 3.956 14.5046 3.70832 14.3333 3.54165C14.162 3.37499 13.919 3.29165 13.6042 3.29165H2.39584C2.08102 3.29165 1.84028 3.37499 1.67361 3.54165C1.50695 3.70832 1.42361 3.956 1.42361 4.28471V12.1319C1.42361 12.456 1.50695 12.7014 1.67361 12.868C1.84028 13.0347 2.08102 13.118 2.39584 13.118Z"
          fill="currentColor" />

      </g>
    </symbol>

    <symbol id="icon-head-calendar" viewBox="0 0 16 17">
      <g clip-path="url(#clip0_head-calendar)">
        <path
          d="M3.49305 14.2986C2.79861 14.2986 2.27315 14.125 1.91666 13.7778C1.56018 13.4305 1.38194 12.9097 1.38194 12.2153V4.20832C1.38194 3.51388 1.56018 2.99304 1.91666 2.64582C2.27315 2.29397 2.79861 2.11804 3.49305 2.11804H12.5C13.2037 2.11804 13.7315 2.29397 14.0833 2.64582C14.4352 2.99767 14.6111 3.5185 14.6111 4.20832V12.2153C14.6111 12.9051 14.4352 13.4236 14.0833 13.7708C13.7315 14.1227 13.2037 14.2986 12.5 14.2986H3.49305ZM3.4375 13.125H12.5486C12.831 13.125 13.0486 13.0509 13.2014 12.9028C13.3588 12.7546 13.4375 12.5301 13.4375 12.2292V6.1111C13.4375 5.8148 13.3588 5.59258 13.2014 5.44443C13.0486 5.29628 12.831 5.22221 12.5486 5.22221H3.4375C3.15509 5.22221 2.93981 5.29628 2.79166 5.44443C2.64352 5.59258 2.56944 5.8148 2.56944 6.1111V12.2292C2.56944 12.5301 2.64352 12.7546 2.79166 12.9028C2.93981 13.0509 3.15509 13.125 3.4375 13.125ZM6.72917 7.53471C6.61342 7.53471 6.53009 7.51388 6.47917 7.47221C6.43287 7.43054 6.40972 7.35184 6.40972 7.2361V6.85415C6.40972 6.73841 6.43287 6.65971 6.47917 6.61804C6.53009 6.57175 6.61342 6.5486 6.72917 6.5486H7.11111C7.22685 6.5486 7.30555 6.57175 7.34722 6.61804C7.39352 6.65971 7.41667 6.73841 7.41667 6.85415V7.2361C7.41667 7.35184 7.39352 7.43054 7.34722 7.47221C7.30555 7.51388 7.22685 7.53471 7.11111 7.53471H6.72917ZM8.88889 7.53471C8.77315 7.53471 8.69213 7.51388 8.64583 7.47221C8.60417 7.43054 8.58333 7.35184 8.58333 7.2361V6.85415C8.58333 6.73841 8.60417 6.65971 8.64583 6.61804C8.69213 6.57175 8.77315 6.5486 8.88889 6.5486H9.27778C9.39352 6.5486 9.47453 6.57175 9.52083 6.61804C9.56713 6.65971 9.59028 6.73841 9.59028 6.85415V7.2361C9.59028 7.35184 9.56713 7.43054 9.52083 7.47221C9.47453 7.51388 9.39352 7.53471 9.27778 7.53471H8.88889ZM11.0556 7.53471C10.9352 7.53471 10.8519 7.51388 10.8056 7.47221C10.7639 7.43054 10.7431 7.35184 10.7431 7.2361V6.85415C10.7431 6.73841 10.7639 6.65971 10.8056 6.61804C10.8519 6.57175 10.9352 6.5486 11.0556 6.5486H11.4444C11.5602 6.5486 11.6389 6.57175 11.6806 6.61804C11.7269 6.65971 11.75 6.73841 11.75 6.85415V7.2361C11.75 7.35184 11.7269 7.43054 11.6806 7.47221C11.6389 7.51388 11.5602 7.53471 11.4444 7.53471H11.0556ZM4.5625 9.6736C4.44213 9.6736 4.35879 9.65276 4.3125 9.6111C4.27083 9.5648 4.25 9.48378 4.25 9.36804V8.97915C4.25 8.86341 4.27083 8.78471 4.3125 8.74304C4.35879 8.70138 4.44213 8.68054 4.5625 8.68054H4.94444C5.06481 8.68054 5.14583 8.70138 5.1875 8.74304C5.23379 8.78471 5.25694 8.86341 5.25694 8.97915V9.36804C5.25694 9.48378 5.23379 9.5648 5.1875 9.6111C5.14583 9.65276 5.06481 9.6736 4.94444 9.6736H4.5625ZM6.72917 9.6736C6.61342 9.6736 6.53009 9.65276 6.47917 9.6111C6.43287 9.5648 6.40972 9.48378 6.40972 9.36804V8.97915C6.40972 8.86341 6.43287 8.78471 6.47917 8.74304C6.53009 8.70138 6.61342 8.68054 6.72917 8.68054H7.11111C7.22685 8.68054 7.30555 8.70138 7.34722 8.74304C7.39352 8.78471 7.41667 8.86341 7.41667 8.97915V9.36804C7.41667 9.48378 7.39352 9.5648 7.34722 9.6111C7.30555 9.65276 7.22685 9.6736 7.11111 9.6736H6.72917ZM8.88889 9.6736C8.77315 9.6736 8.69213 9.65276 8.64583 9.6111C8.60417 9.5648 8.58333 9.48378 8.58333 9.36804V8.97915C8.58333 8.86341 8.60417 8.78471 8.64583 8.74304C8.69213 8.70138 8.77315 8.68054 8.88889 8.68054H9.27778C9.39352 8.68054 9.47453 8.70138 9.52083 8.74304C9.56713 8.78471 9.59028 8.86341 9.59028 8.97915V9.36804C9.59028 9.48378 9.56713 9.5648 9.52083 9.6111C9.47453 9.65276 9.39352 9.6736 9.27778 9.6736H8.88889ZM11.0556 9.6736C10.9352 9.6736 10.8519 9.65276 10.8056 9.6111C10.7639 9.5648 10.7431 9.48378 10.7431 9.36804V8.97915C10.7431 8.86341 10.7639 8.78471 10.8056 8.74304C10.8519 8.70138 10.9352 8.68054 11.0556 8.68054H11.4444C11.5602 8.68054 11.6389 8.70138 11.6806 8.74304C11.7269 8.78471 11.75 8.86341 11.75 8.97915V9.36804C11.75 9.48378 11.7269 9.5648 11.6806 9.6111C11.6389 9.65276 11.5602 9.6736 11.4444 9.6736H11.0556ZM4.5625 11.7986C4.44213 11.7986 4.35879 11.7778 4.3125 11.7361C4.27083 11.6944 4.25 11.6157 4.25 11.5V11.118C4.25 10.9977 4.27083 10.9167 4.3125 10.875C4.35879 10.8333 4.44213 10.8125 4.5625 10.8125H4.94444C5.06481 10.8125 5.14583 10.8333 5.1875 10.875C5.23379 10.9167 5.25694 10.9977 5.25694 11.118V11.5C5.25694 11.6157 5.23379 11.6944 5.1875 11.7361C5.14583 11.7778 5.06481 11.7986 4.94444 11.7986H4.5625ZM6.72917 11.7986C6.61342 11.7986 6.53009 11.7778 6.47917 11.7361C6.43287 11.6944 6.40972 11.6157 6.40972 11.5V11.118C6.40972 10.9977 6.43287 10.9167 6.47917 10.875C6.53009 10.8333 6.61342 10.8125 6.72917 10.8125H7.11111C7.22685 10.8125 7.30555 10.8333 7.34722 10.875C7.39352 10.9167 7.41667 10.9977 7.41667 11.118V11.5C7.41667 11.6157 7.39352 11.6944 7.34722 11.7361C7.30555 11.7778 7.22685 11.7986 7.11111 11.7986H6.72917ZM8.88889 11.7986C8.77315 11.7986 8.69213 11.7778 8.64583 11.7361C8.60417 11.6944 8.58333 11.6157 8.58333 11.5V11.118C8.58333 10.9977 8.60417 10.9167 8.64583 10.875C8.69213 10.8333 8.77315 10.8125 8.88889 10.8125H9.27778C9.39352 10.8125 9.47453 10.8333 9.52083 10.875C9.56713 10.9167 9.59028 10.9977 9.59028 11.118V11.5C9.59028 11.6157 9.56713 11.6944 9.52083 11.7361C9.47453 11.7778 9.39352 11.7986 9.27778 11.7986H8.88889Z"
          fill="currentColor" />
      </g>
    </symbol>

    <symbol id="icon-head-message" viewBox="0 0 16 17">
      <g clip-path="url(#clip0_head-message)">
        <path
          d="M4.5166 13.8652C4.31152 13.8652 4.15202 13.7969 4.03809 13.6602C3.92871 13.528 3.87402 13.3503 3.87402 13.127V11.418H3.51855C2.90332 11.418 2.38151 11.3063 1.95312 11.083C1.5293 10.8597 1.20573 10.5339 0.982422 10.1055C0.759115 9.67708 0.647461 9.15527 0.647461 8.54004V3.50195C0.647461 2.88672 0.759115 2.36491 0.982422 1.93652C1.20573 1.50814 1.5293 1.18229 1.95312 0.958984C2.38151 0.73112 2.90332 0.617188 3.51855 0.617188H11.9336C12.5534 0.617188 13.0752 0.73112 13.499 0.958984C13.9274 1.18685 14.251 1.51497 14.4697 1.94336C14.693 2.36719 14.8047 2.88672 14.8047 3.50195V8.54004C14.8047 9.15072 14.693 9.67025 14.4697 10.0986C14.251 10.527 13.9274 10.8551 13.499 11.083C13.0752 11.3063 12.5534 11.418 11.9336 11.418H7.60645L5.35742 13.4072C5.18424 13.5622 5.03613 13.6761 4.91309 13.749C4.7946 13.8265 4.66243 13.8652 4.5166 13.8652ZM4.75586 12.7988L6.84766 10.7617C6.96159 10.6432 7.07096 10.5658 7.17578 10.5293C7.2806 10.4928 7.41732 10.4746 7.58594 10.4746H11.9268C12.5739 10.4746 13.057 10.3083 13.376 9.97559C13.6995 9.6429 13.8613 9.16439 13.8613 8.54004V3.50195C13.8613 2.87305 13.6995 2.39453 13.376 2.06641C13.057 1.73372 12.5739 1.56738 11.9268 1.56738H3.52539C2.87826 1.56738 2.39518 1.73372 2.07617 2.06641C1.75716 2.39453 1.59766 2.87305 1.59766 3.50195V8.54004C1.59766 9.16439 1.75716 9.6429 2.07617 9.97559C2.39518 10.3083 2.87826 10.4746 3.52539 10.4746H4.30469C4.46875 10.4746 4.58496 10.5088 4.65332 10.5771C4.72168 10.6455 4.75586 10.7594 4.75586 10.9189V12.7988ZM4.35254 4.19922C4.26139 4.19922 4.18164 4.16732 4.11328 4.10352C4.04492 4.03516 4.01074 3.95085 4.01074 3.85059C4.01074 3.75944 4.04492 3.67969 4.11328 3.61133C4.18164 3.54297 4.26139 3.50879 4.35254 3.50879H10.9697C11.0654 3.50879 11.1475 3.54297 11.2158 3.61133C11.2842 3.67969 11.3184 3.75944 11.3184 3.85059C11.3184 3.95085 11.2842 4.03516 11.2158 4.10352C11.1475 4.16732 11.0654 4.19922 10.9697 4.19922H4.35254ZM4.35254 6.30469C4.26139 6.30469 4.18164 6.27051 4.11328 6.20215C4.04492 6.13379 4.01074 6.05176 4.01074 5.95605C4.01074 5.86035 4.04492 5.77832 4.11328 5.70996C4.18164 5.6416 4.26139 5.60742 4.35254 5.60742H10.9697C11.0654 5.60742 11.1475 5.6416 11.2158 5.70996C11.2842 5.77832 11.3184 5.86035 11.3184 5.95605C11.3184 6.05176 11.2842 6.13379 11.2158 6.20215C11.1475 6.27051 11.0654 6.30469 10.9697 6.30469H4.35254ZM4.35254 8.41016C4.26139 8.41016 4.18164 8.37598 4.11328 8.30762C4.04492 8.23926 4.01074 8.15951 4.01074 8.06836C4.01074 7.9681 4.04492 7.88379 4.11328 7.81543C4.18164 7.74707 4.26139 7.71289 4.35254 7.71289H8.67285C8.764 7.71289 8.84375 7.74707 8.91211 7.81543C8.98047 7.88379 9.01465 7.9681 9.01465 8.06836C9.01465 8.15951 8.98047 8.23926 8.91211 8.30762C8.84375 8.37598 8.764 8.41016 8.67285 8.41016H4.35254Z"
          fill="#7E7E7E" />
      </g>
    </symbol>

    <!-- Miscallenous -->
    <symbol id="icon-misc-arrow-left" viewBox="0 0 16 17">
      <g clip-path="url(#clip0_misc-arrow-left)">
        <path
          d="M8.0036 15C7.04289 15 6.13982 14.8151 5.29439 14.4452C4.45377 14.0801 3.71161 13.5757 3.06794 12.9321C2.42426 12.2884 1.91748 11.5462 1.54761 10.7056C1.18254 9.86018 1 8.95711 1 7.9964C1 7.04049 1.18254 6.13982 1.54761 5.29439C1.91268 4.44896 2.41705 3.70441 3.06073 3.06073C3.70921 2.41705 4.45377 1.91268 5.29439 1.54761C6.13982 1.18254 7.04049 1 7.9964 1C8.95231 1 9.85298 1.18254 10.6984 1.54761C11.5438 1.91268 12.2884 2.41705 12.9321 3.06073C13.5757 3.70441 14.0801 4.44896 14.4452 5.29439C14.8151 6.13982 15 7.04049 15 7.9964C15 8.95711 14.8175 9.86018 14.4524 10.7056C14.0873 11.5462 13.5829 12.2884 12.9393 12.9321C12.2956 13.5757 11.551 14.0801 10.7056 14.4452C9.86018 14.8151 8.95951 15 8.0036 15ZM3.71642 7.9964C3.71642 8.06365 3.73083 8.1333 3.75965 8.20535C3.78847 8.27741 3.84131 8.34946 3.91817 8.42151L6.9228 11.2532C7.01887 11.3349 7.10774 11.3973 7.1894 11.4406C7.27586 11.4838 7.36713 11.5054 7.4632 11.5054C7.6025 11.5054 7.71779 11.4622 7.80906 11.3757C7.90033 11.2844 7.94596 11.1692 7.94596 11.0299V9.53834H11.0443C11.3277 9.53834 11.5486 9.46149 11.7072 9.30777C11.8657 9.15406 11.9449 8.9379 11.9449 8.65929V7.34071C11.9449 7.06691 11.8657 6.85315 11.7072 6.69943C11.5486 6.54092 11.3277 6.46166 11.0443 6.46166H7.94596V4.98456C7.94596 4.84526 7.90033 4.72757 7.80906 4.6315C7.71779 4.53062 7.5977 4.48019 7.44879 4.48019C7.35272 4.48019 7.26625 4.5042 7.1894 4.55224C7.11734 4.59547 7.02848 4.66512 6.9228 4.76119L3.91817 7.56408C3.84131 7.63613 3.78847 7.70818 3.75965 7.78024C3.73083 7.85229 3.71642 7.92434 3.71642 7.9964Z"
          fill="#CE0000" />
      </g>
    </symbol>

    <symbol id="icon-misc-arrow-right" viewBox="0 0 16 17">
      <g clip-path="url(#clip0_misc-arrow-right)">
        <path
          d="M8.0036 15C7.04289 15 6.13982 14.8151 5.29439 14.4452C4.45377 14.0801 3.71161 13.5757 3.06794 12.9321C2.42426 12.2884 1.91748 11.5462 1.54761 10.7056C1.18254 9.86018 1 8.95711 1 7.9964C1 7.04049 1.18254 6.13982 1.54761 5.29439C1.91268 4.44896 2.41705 3.70441 3.06073 3.06073C3.70921 2.41705 4.45377 1.91268 5.29439 1.54761C6.13982 1.18254 7.04049 1 7.9964 1C8.95231 1 9.85298 1.18254 10.6984 1.54761C11.5438 1.91268 12.2884 2.41705 12.9321 3.06073C13.5757 3.70441 14.0801 4.44896 14.4452 5.29439C14.8151 6.13982 15 7.04049 15 7.9964C15 8.95711 14.8175 9.86018 14.4524 10.7056C14.0873 11.5462 13.5829 12.2884 12.9393 12.9321C12.2956 13.5757 11.551 14.0801 10.7056 14.4452C9.86018 14.8151 8.95951 15 8.0036 15ZM12.2692 7.9964C12.2692 7.92434 12.2524 7.84989 12.2187 7.77303C12.1899 7.69617 12.1395 7.62172 12.0674 7.54967L8.97633 4.66752C8.86584 4.56665 8.76977 4.4946 8.68811 4.45136C8.61125 4.40813 8.52479 4.38652 8.42872 4.38652C8.28461 4.38652 8.16452 4.43695 8.06845 4.53783C7.97238 4.6387 7.92434 4.75639 7.92434 4.89089V6.41122H4.73237C4.43935 6.41122 4.21119 6.49288 4.04786 6.6562C3.88454 6.81472 3.80288 7.03809 3.80288 7.3263V8.68091C3.80288 8.96912 3.88454 9.19249 4.04786 9.351C4.21119 9.50472 4.43935 9.58157 4.73237 9.58157H7.92434V11.1163C7.92434 11.2604 7.96998 11.3805 8.06125 11.4766C8.15732 11.5679 8.2726 11.6135 8.4071 11.6135C8.50798 11.6135 8.60165 11.5919 8.68811 11.5486C8.77938 11.5006 8.87545 11.4334 8.97633 11.3469L12.0674 8.43592C12.1395 8.36387 12.1899 8.28941 12.2187 8.21256C12.2524 8.1357 12.2692 8.06365 12.2692 7.9964Z"
          fill="#1BBA69" />
      </g>
    </symbol>

    <symbol id="icon-misc-chevron-down" viewBox="0 0 16 17">
      <g clip-path="url(#clip0_misc-chevron-down)">
        <path
          d="M8 11.4795C7.88184 11.4795 7.7762 11.4347 7.68311 11.3452L3.78906 7.30615C3.74967 7.26676 3.71745 7.22201 3.69238 7.17188C3.6709 7.12174 3.66016 7.06803 3.66016 7.01074C3.66016 6.92839 3.67806 6.85677 3.71387 6.7959C3.75326 6.73145 3.80339 6.68132 3.86426 6.64551C3.92871 6.60612 4.00033 6.58643 4.0791 6.58643C4.19368 6.58643 4.29215 6.6276 4.37451 6.70996L8.25781 10.7114H7.74756L11.6201 6.70996C11.7061 6.6276 11.8063 6.58643 11.9209 6.58643C11.9997 6.58643 12.0713 6.60612 12.1357 6.64551C12.2002 6.68132 12.2503 6.73145 12.2861 6.7959C12.3219 6.85677 12.3398 6.92839 12.3398 7.01074C12.3398 7.12174 12.2987 7.22021 12.2163 7.30615L8.31152 11.3398C8.27214 11.3864 8.22559 11.4222 8.17188 11.4473C8.11816 11.4688 8.06087 11.4795 8 11.4795Z"
          fill="#B0B0B0" />
      </g>
    </symbol>

    <symbol id="icon-misc-clock" viewBox="0 0 16 17">
      <g clip-path="url(#clip0_misc-clock)">
        <path
          d="M4.64598 9.3799C4.48457 9.3799 4.34927 9.32528 4.24008 9.21603C4.13089 9.10679 4.0763 8.97379 4.0763 8.81705C4.0763 8.66031 4.13089 8.52731 4.24008 8.41807C4.34927 8.30882 4.48457 8.2542 4.64598 8.2542H7.43032V4.45674C7.43032 4.3 7.48491 4.16701 7.5941 4.05776C7.70329 3.94852 7.83622 3.89389 7.99288 3.89389C8.15429 3.89389 8.28722 3.94852 8.39166 4.05776C8.50085 4.16701 8.55544 4.3 8.55544 4.45674V8.81705C8.55544 8.97379 8.50085 9.10679 8.39166 9.21603C8.28722 9.32528 8.15429 9.3799 7.99288 9.3799H4.64598ZM8 15.5C7.04103 15.5 6.13903 15.3171 5.294 14.9514C4.44897 14.5857 3.70363 14.0798 3.05799 13.4338C2.41709 12.7926 1.91387 12.0493 1.54832 11.2038C1.18277 10.3584 1 9.45589 1 8.49644C1 7.53698 1.18277 6.6369 1.54832 5.79618C1.91387 4.95072 2.41709 4.205 3.05799 3.55903C3.70363 2.91306 4.44897 2.40958 5.294 2.0486C6.13903 1.68287 7.03866 1.5 7.99288 1.5C8.95185 1.5 9.85385 1.68287 10.6989 2.0486C11.5439 2.40958 12.2869 2.91306 12.9278 3.55903C13.5734 4.205 14.079 4.95072 14.4446 5.79618C14.8149 6.6369 15 7.53698 15 8.49644C15 9.45589 14.8172 10.3584 14.4517 11.2038C14.0861 12.0493 13.5805 12.7926 12.9349 13.4338C12.2893 14.0798 11.5439 14.5857 10.6989 14.9514C9.8586 15.3171 8.95897 15.5 8 15.5ZM8 14.0252C8.76907 14.0252 9.48593 13.8827 10.1506 13.5977C10.8199 13.3127 11.4062 12.9185 11.9095 12.415C12.4174 11.9068 12.8138 11.3178 13.0987 10.6481C13.3835 9.97837 13.5259 9.26115 13.5259 8.49644C13.5259 7.73172 13.3835 7.0145 13.0987 6.34478C12.8138 5.67506 12.4174 5.08846 11.9095 4.58499C11.4062 4.07676 10.8199 3.68015 10.1506 3.39517C9.48118 3.11018 8.76195 2.96768 7.99288 2.96768C7.22855 2.96768 6.5117 3.11018 5.84232 3.39517C5.17769 3.68015 4.59139 4.07676 4.08342 4.58499C3.5802 5.08846 3.18616 5.67506 2.90132 6.34478C2.61648 7.0145 2.47406 7.73172 2.47406 8.49644C2.47406 9.26115 2.61648 9.97837 2.90132 10.6481C3.18616 11.3178 3.5802 11.9068 4.08342 12.415C4.59139 12.9185 5.18006 13.3127 5.84944 13.5977C6.51882 13.8827 7.23567 14.0252 8 14.0252Z"
          fill="currentColor" />
      </g>
    </symbol>

    <symbol id="icon-misc-feature" viewBox="0 0 16 17">
      <g clip-path="url(#clip0_misc-feature)">
        <path
          d="M7.97656 14.4531C7.16016 14.4531 6.39062 14.2969 5.66797 13.9844C4.94922 13.6719 4.31445 13.2402 3.76367 12.6895C3.21289 12.1387 2.78125 11.5039 2.46875 10.7852C2.15625 10.0625 2 9.29297 2 8.47656C2 7.66016 2.15625 6.89258 2.46875 6.17383C2.78125 5.45117 3.21094 4.81445 3.75781 4.26367C4.30859 3.71289 4.94336 3.28125 5.66211 2.96875C6.38477 2.65625 7.1543 2.5 7.9707 2.5C8.78711 2.5 9.55664 2.65625 10.2793 2.96875C11.002 3.28125 11.6387 3.71289 12.1895 4.26367C12.7402 4.81445 13.1719 5.45117 13.4844 6.17383C13.7969 6.89258 13.9531 7.66016 13.9531 8.47656C13.9531 9.29297 13.7969 10.0625 13.4844 10.7852C13.1719 11.5039 12.7402 12.1387 12.1895 12.6895C11.6387 13.2402 11.002 13.6719 10.2793 13.9844C9.56055 14.2969 8.79297 14.4531 7.97656 14.4531ZM7.31445 11.3359C7.41602 11.3359 7.50781 11.3125 7.58984 11.2656C7.67188 11.2188 7.74414 11.1484 7.80664 11.0547L10.5605 6.71289C10.5957 6.6543 10.6289 6.5918 10.6602 6.52539C10.6914 6.45898 10.707 6.39258 10.707 6.32617C10.707 6.18945 10.6562 6.08203 10.5547 6.00391C10.4531 5.92188 10.3398 5.88086 10.2148 5.88086C10.043 5.88086 9.90234 5.9707 9.79297 6.15039L7.29102 10.1699L6.10156 8.63477C6.02734 8.53711 5.95508 8.4707 5.88477 8.43555C5.81836 8.40039 5.74219 8.38281 5.65625 8.38281C5.52344 8.38281 5.41211 8.43164 5.32227 8.5293C5.23242 8.62305 5.1875 8.73633 5.1875 8.86914C5.1875 8.93555 5.19922 9.00195 5.22266 9.06836C5.25 9.13086 5.28516 9.19141 5.32812 9.25L6.79883 11.0547C6.87695 11.1562 6.95703 11.2285 7.03906 11.2715C7.12109 11.3145 7.21289 11.3359 7.31445 11.3359Z"
          fill="#1BBA69" />
      </g>
    </symbol>

    <symbol id="icon-misc-pause" viewBox="0 0 16 17">
      <g clip-path="url(#clip0_misc-pause)">
        <path
          d="M8.5036 15C7.54289 15 6.63982 14.8151 5.79439 14.4452C4.95377 14.0801 4.21161 13.5757 3.56794 12.9321C2.92426 12.2884 2.41748 11.5462 2.04761 10.7056C1.68254 9.86018 1.5 8.95711 1.5 7.9964C1.5 7.04049 1.68254 6.13982 2.04761 5.29439C2.41268 4.44896 2.91705 3.70441 3.56073 3.06073C4.20921 2.41705 4.95377 1.91268 5.79439 1.54761C6.63982 1.18254 7.54049 1 8.4964 1C9.45231 1 10.353 1.18254 11.1984 1.54761C12.0438 1.91268 12.7884 2.41705 13.4321 3.06073C14.0757 3.70441 14.5801 4.44896 14.9452 5.29439C15.3151 6.13982 15.5 7.04049 15.5 7.9964C15.5 8.95711 15.3175 9.86018 14.9524 10.7056C14.5873 11.5462 14.0829 12.2884 13.4393 12.9321C12.7956 13.5757 12.051 14.0801 11.2056 14.4452C10.3602 14.8151 9.45951 15 8.5036 15ZM6.49331 10.7488H7.21384C7.39158 10.7488 7.52367 10.7056 7.61014 10.6191C7.6966 10.5327 7.73984 10.4174 7.73984 10.2733V5.69789C7.73984 5.55859 7.6966 5.4457 7.61014 5.35924C7.52367 5.26797 7.39158 5.22234 7.21384 5.22234H6.49331C6.32038 5.22234 6.19068 5.26797 6.10422 5.35924C6.01776 5.4457 5.97452 5.55859 5.97452 5.69789V10.2733C5.97452 10.4174 6.01776 10.5327 6.10422 10.6191C6.19068 10.7056 6.32038 10.7488 6.49331 10.7488ZM9.80057 10.7488H10.5211C10.6892 10.7488 10.8165 10.7056 10.903 10.6191C10.9894 10.5327 11.0327 10.4174 11.0327 10.2733V5.69789C11.0327 5.55859 10.9894 5.4457 10.903 5.35924C10.8165 5.26797 10.6892 5.22234 10.5211 5.22234H9.80057C9.62283 5.22234 9.49074 5.26797 9.40427 5.35924C9.31781 5.4457 9.27458 5.55859 9.27458 5.69789V10.2733C9.27458 10.4174 9.31781 10.5327 9.40427 10.6191C9.49074 10.7056 9.62283 10.7488 9.80057 10.7488Z"
          fill="#7E7E7E" />
      </g>
    </symbol>

    <symbol id="icon-misc-play" viewBox="0 0 16 17">
      <g clip-path="url(#clip0_misc-play)">
        <path
          d="M8.0036 15C7.04289 15 6.13982 14.8151 5.29439 14.4452C4.45377 14.0801 3.71161 13.5757 3.06794 12.9321C2.42426 12.2884 1.91748 11.5462 1.54761 10.7056C1.18254 9.86018 1 8.95711 1 7.9964C1 7.04049 1.18254 6.13982 1.54761 5.29439C1.91268 4.44896 2.41705 3.70441 3.06073 3.06073C3.70921 2.41705 4.45377 1.91268 5.29439 1.54761C6.13982 1.18254 7.04049 1 7.9964 1C8.95231 1 9.85298 1.18254 10.6984 1.54761C11.5438 1.91268 12.2884 2.41705 12.9321 3.06073C13.5757 3.70441 14.0801 4.44896 14.4452 5.29439C14.8151 6.13982 15 7.04049 15 7.9964C15 8.95711 14.8175 9.86018 14.4524 10.7056C14.0873 11.5462 13.5829 12.2884 12.9393 12.9321C12.2956 13.5757 11.551 14.0801 10.7056 14.4452C9.86018 14.8151 8.95951 15 8.0036 15ZM6.74267 10.756L10.7056 8.42151C10.8161 8.35426 10.8881 8.2678 10.9218 8.16212C10.9602 8.05644 10.9602 7.95076 10.9218 7.84508C10.8833 7.73941 10.8113 7.65294 10.7056 7.58569L6.74267 5.24395C6.63218 5.1767 6.5169 5.14788 6.39681 5.15749C6.28152 5.1671 6.18065 5.21033 6.09418 5.28718C6.01252 5.35924 5.97169 5.45531 5.97169 5.5754V10.4246C5.97169 10.5495 6.01012 10.6504 6.08698 10.7272C6.16864 10.7993 6.26711 10.8425 6.3824 10.8569C6.50249 10.8665 6.62258 10.8329 6.74267 10.756Z"
          fill="#16A4E3" />
      </g>
    </symbol>

    <symbol id="icon-misc-plus" viewBox="0 0 16 17">
      <g clip-path="url(#clip0_misc-plus)">
        <path
          d="M2.4963 8.9963C2.36296 8.9963 2.24691 8.94938 2.14815 8.85556C2.04938 8.75679 2 8.63827 2 8.5C2 8.36173 2.04938 8.24321 2.14815 8.14444C2.24691 8.04568 2.36296 7.9963 2.4963 7.9963H13.4963C13.6346 7.9963 13.7531 8.04568 13.8519 8.14444C13.9506 8.24321 14 8.36173 14 8.5C14 8.63827 13.9506 8.75679 13.8519 8.85556C13.7531 8.94938 13.6346 8.9963 13.4963 8.9963H2.4963ZM8 14.5C7.86173 14.5 7.74321 14.4506 7.64444 14.3519C7.55062 14.2531 7.5037 14.137 7.5037 14.0037V2.9963C7.5037 2.86296 7.55062 2.74691 7.64444 2.64815C7.74321 2.54938 7.86173 2.5 8 2.5C8.13827 2.5 8.25679 2.54938 8.35556 2.64815C8.45432 2.74691 8.5037 2.86296 8.5037 2.9963V14.0037C8.5037 14.137 8.45432 14.2531 8.35556 14.3519C8.25679 14.4506 8.13827 14.5 8 14.5Z"
          fill="#16A4E3" />
      </g>
    </symbol>

    <symbol id="icon-misc-project-logo" viewBox="0 0 16 17">
      <g clip-path="url(#clip0_misc-project-logo)">
        <path fill-rule="evenodd" clip-rule="evenodd"
          d="M8 16C12.4183 16 16 12.4183 16 8C16 3.58172 12.4183 0 8 0C3.58172 0 0 3.58172 0 8C0 12.4183 3.58172 16 8 16Z"
          fill="url(#pattern0_661_456)" />
      </g>
    </symbol>

    <!-- Product type -->
    <symbol id="icon-prod-android" viewBox="0 0 16 17">
      <g clip-path="url(#clip0_prod-android)">
        <path fill-rule="evenodd" clip-rule="evenodd"
          d="M10.0877 1.74315L9.53019 2.67237C10.6079 3.22959 11.3476 4.35263 11.3476 5.64733C11.3476 5.77074 11.2476 5.87062 11.1243 5.87062H4.87241C4.74911 5.87062 4.64913 5.77074 4.64913 5.64733C4.64913 4.35263 5.38884 3.22959 6.46653 2.67237L5.90902 1.74315C5.84556 1.63741 5.87979 1.50027 5.98556 1.43681C6.09131 1.37335 6.22845 1.40736 6.2919 1.51335L6.88036 2.49408C7.23063 2.36946 7.60587 2.2981 7.99836 2.2981C8.39085 2.2981 8.76609 2.36946 9.11636 2.49408L9.70482 1.51335C9.76827 1.40736 9.90519 1.37313 10.0112 1.43681C10.1169 1.50027 10.1512 1.63741 10.0877 1.74315ZM7.99836 2.74467C6.47301 2.74467 5.21856 3.92737 5.1042 5.42405H10.8925C10.7782 3.92737 9.52371 2.74467 7.99836 2.74467ZM9.26189 3.94314H9.55629C9.63761 3.94314 9.7035 4.00896 9.7035 4.09035V4.38474C9.7035 4.46611 9.63761 4.53195 9.55629 4.53195H9.26189C9.18059 4.53195 9.11468 4.46611 9.11468 4.38474V4.09035C9.11468 4.00896 9.18059 3.94314 9.26189 3.94314ZM6.73491 3.94314H6.44051C6.35919 3.94314 6.2933 4.00896 6.2933 4.09035V4.38474C6.2933 4.46611 6.35919 4.53195 6.44051 4.53195H6.73491C6.81621 4.53195 6.88212 4.46611 6.88212 4.38474V4.09035C6.88212 4.00896 6.81621 3.94314 6.73491 3.94314ZM4.87241 6.6278H11.1243C11.2476 6.6278 11.3476 6.72767 11.3476 6.85108V11.3549C11.3476 11.9495 10.8633 12.4331 10.2681 12.4331H10.0079V13.7741C10.0079 14.2658 9.60724 14.666 9.11477 14.666C8.6223 14.666 8.22164 14.2658 8.22164 13.7741V12.4331H7.77508V13.7741C7.77508 14.2658 7.37442 14.666 6.88195 14.666C6.38948 14.666 5.98882 14.2658 5.98882 13.7741V12.4331H5.72858C5.1334 12.4331 4.64913 11.9495 4.64913 11.3549V6.85108C4.64913 6.72767 4.74911 6.6278 4.87241 6.6278ZM10.2681 11.9866C10.6171 11.9866 10.901 11.7031 10.901 11.3549V7.07436H5.09569V11.3549C5.09569 11.7031 5.37959 11.9866 5.72858 11.9866H6.2121C6.3354 11.9866 6.43538 12.0864 6.43538 12.2099V13.7741C6.43538 14.0197 6.63567 14.2194 6.88195 14.2194C7.12823 14.2194 7.32851 14.0197 7.32851 13.7741V12.2099C7.32851 12.0864 7.4285 11.9866 7.5518 11.9866H8.44492C8.56822 11.9866 8.66821 12.0864 8.66821 12.2099V13.7741C8.66821 14.0197 8.86849 14.2194 9.11477 14.2194C9.36105 14.2194 9.56134 14.0197 9.56134 13.7741V12.2099C9.56134 12.0864 9.66132 11.9866 9.78462 11.9866H10.2681ZM12.8834 6.62922C12.4525 6.62922 12.1019 6.98028 12.1019 7.41158V10.5358C12.1019 10.9671 12.4525 11.3181 12.8834 11.3181C13.3143 11.3181 13.6649 10.9671 13.6649 10.5358V7.41158C13.6649 6.98028 13.3143 6.62922 12.8834 6.62922ZM13.2183 10.5358C13.2183 10.7209 13.0681 10.8716 12.8834 10.8716C12.6987 10.8716 12.5485 10.7209 12.5485 10.5358V7.41158C12.5485 7.22645 12.6987 7.07578 12.8834 7.07578C13.0681 7.07578 13.2183 7.22645 13.2183 7.41158V10.5358ZM2.32739 7.41158C2.32739 6.98028 2.67801 6.62922 3.10888 6.62922C3.53975 6.62922 3.89037 6.98028 3.89037 7.41158V10.5358C3.89037 10.9671 3.53975 11.3181 3.10888 11.3181C2.67801 11.3181 2.32739 10.9671 2.32739 10.5358V7.41158ZM3.10888 10.8716C3.29356 10.8716 3.4438 10.7209 3.4438 10.5358V7.41158C3.4438 7.22645 3.29356 7.07578 3.10888 7.07578C2.9242 7.07578 2.77396 7.22645 2.77396 7.41158V10.5358C2.77396 10.7209 2.9242 10.8716 3.10888 10.8716Z" />
        <path fill-rule="evenodd" clip-rule="evenodd"
          d="M10.0877 1.74315L9.53019 2.67237C10.6079 3.22959 11.3476 4.35263 11.3476 5.64733C11.3476 5.77074 11.2476 5.87062 11.1243 5.87062H4.87241C4.74911 5.87062 4.64913 5.77074 4.64913 5.64733C4.64913 4.35263 5.38884 3.22959 6.46653 2.67237L5.90902 1.74315C5.84556 1.63741 5.87979 1.50027 5.98556 1.43681C6.09131 1.37335 6.22845 1.40736 6.2919 1.51335L6.88036 2.49408C7.23063 2.36946 7.60587 2.2981 7.99836 2.2981C8.39085 2.2981 8.76609 2.36946 9.11636 2.49408L9.70482 1.51335C9.76827 1.40736 9.90519 1.37313 10.0112 1.43681C10.1169 1.50027 10.1512 1.63741 10.0877 1.74315ZM7.99836 2.74467C6.47301 2.74467 5.21856 3.92737 5.1042 5.42405H10.8925C10.7782 3.92737 9.52371 2.74467 7.99836 2.74467ZM9.26189 3.94314H9.55629C9.63761 3.94314 9.7035 4.00896 9.7035 4.09035V4.38474C9.7035 4.46611 9.63761 4.53195 9.55629 4.53195H9.26189C9.18059 4.53195 9.11468 4.46611 9.11468 4.38474V4.09035C9.11468 4.00896 9.18059 3.94314 9.26189 3.94314ZM6.73491 3.94314H6.44051C6.35919 3.94314 6.2933 4.00896 6.2933 4.09035V4.38474C6.2933 4.46611 6.35919 4.53195 6.44051 4.53195H6.73491C6.81621 4.53195 6.88212 4.46611 6.88212 4.38474V4.09035C6.88212 4.00896 6.81621 3.94314 6.73491 3.94314ZM4.87241 6.6278H11.1243C11.2476 6.6278 11.3476 6.72767 11.3476 6.85108V11.3549C11.3476 11.9495 10.8633 12.4331 10.2681 12.4331H10.0079V13.7741C10.0079 14.2658 9.60724 14.666 9.11477 14.666C8.6223 14.666 8.22164 14.2658 8.22164 13.7741V12.4331H7.77508V13.7741C7.77508 14.2658 7.37442 14.666 6.88195 14.666C6.38948 14.666 5.98882 14.2658 5.98882 13.7741V12.4331H5.72858C5.1334 12.4331 4.64913 11.9495 4.64913 11.3549V6.85108C4.64913 6.72767 4.74911 6.6278 4.87241 6.6278ZM10.2681 11.9866C10.6171 11.9866 10.901 11.7031 10.901 11.3549V7.07436H5.09569V11.3549C5.09569 11.7031 5.37959 11.9866 5.72858 11.9866H6.2121C6.3354 11.9866 6.43538 12.0864 6.43538 12.2099V13.7741C6.43538 14.0197 6.63567 14.2194 6.88195 14.2194C7.12823 14.2194 7.32851 14.0197 7.32851 13.7741V12.2099C7.32851 12.0864 7.4285 11.9866 7.5518 11.9866H8.44492C8.56822 11.9866 8.66821 12.0864 8.66821 12.2099V13.7741C8.66821 14.0197 8.86849 14.2194 9.11477 14.2194C9.36105 14.2194 9.56134 14.0197 9.56134 13.7741V12.2099C9.56134 12.0864 9.66132 11.9866 9.78462 11.9866H10.2681ZM12.8834 6.62922C12.4525 6.62922 12.1019 6.98028 12.1019 7.41158V10.5358C12.1019 10.9671 12.4525 11.3181 12.8834 11.3181C13.3143 11.3181 13.6649 10.9671 13.6649 10.5358V7.41158C13.6649 6.98028 13.3143 6.62922 12.8834 6.62922ZM13.2183 10.5358C13.2183 10.7209 13.0681 10.8716 12.8834 10.8716C12.6987 10.8716 12.5485 10.7209 12.5485 10.5358V7.41158C12.5485 7.22645 12.6987 7.07578 12.8834 7.07578C13.0681 7.07578 13.2183 7.22645 13.2183 7.41158V10.5358ZM2.32739 7.41158C2.32739 6.98028 2.67801 6.62922 3.10888 6.62922C3.53975 6.62922 3.89037 6.98028 3.89037 7.41158V10.5358C3.89037 10.9671 3.53975 11.3181 3.10888 11.3181C2.67801 11.3181 2.32739 10.9671 2.32739 10.5358V7.41158ZM3.10888 10.8716C3.29356 10.8716 3.4438 10.7209 3.4438 10.5358V7.41158C3.4438 7.22645 3.29356 7.07578 3.10888 7.07578C2.9242 7.07578 2.77396 7.22645 2.77396 7.41158V10.5358C2.77396 10.7209 2.9242 10.8716 3.10888 10.8716Z"
          fill="#B0B0B0" />
        <path
          d="M9.53019 2.67237L9.31581 2.54374L9.17879 2.77212L9.41536 2.89444L9.53019 2.67237ZM10.0877 1.74315L9.87334 1.61452L9.87333 1.61453L10.0877 1.74315ZM6.46653 2.67237L6.58135 2.89444L6.81793 2.77212L6.68091 2.54374L6.46653 2.67237ZM5.90902 1.74315L6.12339 1.61453L6.12338 1.61452L5.90902 1.74315ZM5.98556 1.43681L6.11418 1.65119L6.1142 1.65118L5.98556 1.43681ZM6.2919 1.51335L6.07741 1.64177L6.07753 1.64198L6.2919 1.51335ZM6.88036 2.49408L6.66599 2.6227L6.77131 2.79822L6.96416 2.72961L6.88036 2.49408ZM9.11636 2.49408L9.03256 2.72961L9.22541 2.79822L9.33073 2.6227L9.11636 2.49408ZM9.70482 1.51335L9.91919 1.64198L9.91931 1.64177L9.70482 1.51335ZM10.0112 1.43681L9.88239 1.6511L9.88254 1.65119L10.0112 1.43681ZM5.1042 5.42405L4.85492 5.405L4.83437 5.67405H5.1042V5.42405ZM10.8925 5.42405V5.67405H11.1624L11.1418 5.405L10.8925 5.42405ZM10.0079 12.4331V12.1831H9.7579V12.4331H10.0079ZM8.22164 12.4331H8.47164V12.1831H8.22164V12.4331ZM7.77508 12.4331V12.1831H7.52508V12.4331H7.77508ZM5.98882 12.4331H6.23882V12.1831H5.98882V12.4331ZM10.901 7.07436H11.151V6.82436H10.901V7.07436ZM5.09569 7.07436V6.82436H4.84569V7.07436H5.09569ZM9.74456 2.80099L10.3021 1.87178L9.87333 1.61453L9.31581 2.54374L9.74456 2.80099ZM11.5976 5.64733C11.5976 4.25488 10.8019 3.04845 9.64501 2.45029L9.41536 2.89444C10.4139 3.41073 11.0976 4.45039 11.0976 5.64733H11.5976ZM11.1243 6.12062C11.3856 6.12062 11.5976 5.9089 11.5976 5.64733H11.0976C11.0976 5.63259 11.1096 5.62062 11.1243 5.62062V6.12062ZM4.87241 6.12062H11.1243V5.62062H4.87241V6.12062ZM4.39913 5.64733C4.39913 5.9089 4.61112 6.12062 4.87241 6.12062V5.62062C4.8871 5.62062 4.89913 5.63259 4.89913 5.64733H4.39913ZM6.35171 2.45029C5.19486 3.04845 4.39913 4.25488 4.39913 5.64733H4.89913C4.89913 4.45039 5.58282 3.41073 6.58135 2.89444L6.35171 2.45029ZM5.69464 1.87178L6.25216 2.80099L6.68091 2.54374L6.12339 1.61453L5.69464 1.87178ZM5.85694 1.22243C5.63269 1.35698 5.5602 1.64773 5.69465 1.87179L6.12338 1.61452C6.13093 1.62709 6.12689 1.64356 6.11418 1.65119L5.85694 1.22243ZM6.5064 1.38494C6.37169 1.15993 6.08069 1.08817 5.85692 1.22245L6.1142 1.65118C6.10193 1.65854 6.0852 1.65479 6.07741 1.64177L6.5064 1.38494ZM7.09473 2.36545L6.50627 1.38472L6.07753 1.64198L6.66599 2.6227L7.09473 2.36545ZM7.99836 2.0481C7.57524 2.0481 7.1717 2.12507 6.79657 2.25854L6.96416 2.72961C7.28955 2.61385 7.6365 2.5481 7.99836 2.5481V2.0481ZM9.20015 2.25854C8.82502 2.12507 8.42147 2.0481 7.99836 2.0481V2.5481C8.36022 2.5481 8.70717 2.61385 9.03256 2.72961L9.20015 2.25854ZM9.49045 1.38472L8.90199 2.36545L9.33073 2.6227L9.91919 1.64198L9.49045 1.38472ZM10.1399 1.22253C9.91557 1.0877 9.62484 1.16025 9.49032 1.38493L9.91931 1.64177C9.91171 1.65447 9.89481 1.65856 9.88239 1.6511L10.1399 1.22253ZM10.3021 1.87179C10.4365 1.64773 10.364 1.35698 10.1398 1.22243L9.88254 1.65119C9.86983 1.64356 9.86579 1.62709 9.87334 1.61452L10.3021 1.87179ZM5.35347 5.4431C5.45796 4.07564 6.60477 2.99467 7.99836 2.99467V2.49467C6.34124 2.49467 4.97916 3.7791 4.85492 5.405L5.35347 5.4431ZM10.8925 5.17405H5.1042V5.67405H10.8925V5.17405ZM7.99836 2.99467C9.39195 2.99467 10.5388 4.07564 10.6432 5.4431L11.1418 5.405C11.0176 3.7791 9.65548 2.49467 7.99836 2.49467V2.99467ZM9.55629 3.69314H9.26189V4.19314H9.55629V3.69314ZM9.9535 4.09035C9.9535 3.87082 9.7756 3.69314 9.55629 3.69314V4.19314C9.49961 4.19314 9.4535 4.14711 9.4535 4.09035H9.9535ZM9.9535 4.38474V4.09035H9.4535V4.38474H9.9535ZM9.55629 4.78195C9.77563 4.78195 9.9535 4.60423 9.9535 4.38474H9.4535C9.4535 4.32799 9.49959 4.28196 9.55629 4.28196V4.78195ZM9.26189 4.78195H9.55629V4.28196H9.26189V4.78195ZM8.86468 4.38474C8.86468 4.60425 9.0426 4.78195 9.26189 4.78195V4.28196C9.31859 4.28196 9.36468 4.32796 9.36468 4.38474H8.86468ZM8.86468 4.09035V4.38474H9.36468V4.09035H8.86468ZM9.26189 3.69314C9.04262 3.69314 8.86468 3.87079 8.86468 4.09035H9.36468C9.36468 4.14713 9.31856 4.19314 9.26189 4.19314V3.69314ZM6.44051 4.19314H6.73491V3.69314H6.44051V4.19314ZM6.5433 4.09035C6.5433 4.14711 6.49719 4.19314 6.44051 4.19314V3.69314C6.2212 3.69314 6.0433 3.87082 6.0433 4.09035H6.5433ZM6.5433 4.38474V4.09035H6.0433V4.38474H6.5433ZM6.44051 4.28196C6.49721 4.28196 6.5433 4.32799 6.5433 4.38474H6.0433C6.0433 4.60423 6.22117 4.78195 6.44051 4.78195V4.28196ZM6.73491 4.28196H6.44051V4.78195H6.73491V4.28196ZM6.63212 4.38474C6.63212 4.32796 6.67821 4.28196 6.73491 4.28196V4.78195C6.9542 4.78195 7.13212 4.60425 7.13212 4.38474H6.63212ZM6.63212 4.09035V4.38474H7.13212V4.09035H6.63212ZM6.73491 4.19314C6.67823 4.19314 6.63212 4.14713 6.63212 4.09035H7.13212C7.13212 3.87079 6.95418 3.69314 6.73491 3.69314V4.19314ZM11.1243 6.3778H4.87241V6.8778H11.1243V6.3778ZM11.5976 6.85108C11.5976 6.58952 11.3856 6.3778 11.1243 6.3778V6.8778C11.1096 6.8778 11.0976 6.86582 11.0976 6.85108H11.5976ZM11.5976 11.3549V6.85108H11.0976V11.3549H11.5976ZM10.2681 12.6831C11.0011 12.6831 11.5976 12.0879 11.5976 11.3549H11.0976C11.0976 11.8112 10.7255 12.1831 10.2681 12.1831V12.6831ZM10.0079 12.6831H10.2681V12.1831H10.0079V12.6831ZM10.2579 13.7741V12.4331H9.7579V13.7741H10.2579ZM9.11477 14.916C9.74498 14.916 10.2579 14.4042 10.2579 13.7741H9.7579C9.7579 14.1274 9.46951 14.416 9.11477 14.416V14.916ZM7.97164 13.7741C7.97164 14.4042 8.48457 14.916 9.11477 14.916V14.416C8.76003 14.416 8.47164 14.1274 8.47164 13.7741H7.97164ZM7.97164 12.4331V13.7741H8.47164V12.4331H7.97164ZM7.77508 12.6831H8.22164V12.1831H7.77508V12.6831ZM8.02508 13.7741V12.4331H7.52508V13.7741H8.02508ZM6.88195 14.916C7.51215 14.916 8.02508 14.4042 8.02508 13.7741H7.52508C7.52508 14.1274 7.23669 14.416 6.88195 14.416V14.916ZM5.73882 13.7741C5.73882 14.4042 6.25174 14.916 6.88195 14.916V14.416C6.52721 14.416 6.23882 14.1274 6.23882 13.7741H5.73882ZM5.73882 12.4331V13.7741H6.23882V12.4331H5.73882ZM5.72858 12.6831H5.98882V12.1831H5.72858V12.6831ZM4.39913 11.3549C4.39913 12.0879 4.99561 12.6831 5.72858 12.6831V12.1831C5.27119 12.1831 4.89913 11.8112 4.89913 11.3549H4.39913ZM4.39913 6.85108V11.3549H4.89913V6.85108H4.39913ZM4.87241 6.3778C4.61112 6.3778 4.39913 6.58952 4.39913 6.85108H4.89913C4.89913 6.86582 4.8871 6.8778 4.87241 6.8778V6.3778ZM10.651 11.3549C10.651 11.5646 10.4795 11.7366 10.2681 11.7366V12.2366C10.7548 12.2366 11.151 11.8416 11.151 11.3549H10.651ZM10.651 7.07436V11.3549H11.151V7.07436H10.651ZM5.09569 7.32436H10.901V6.82436H5.09569V7.32436ZM5.34569 11.3549V7.07436H4.84569V11.3549H5.34569ZM5.72858 11.7366C5.51724 11.7366 5.34569 11.5646 5.34569 11.3549H4.84569C4.84569 11.8416 5.24195 12.2366 5.72858 12.2366V11.7366ZM6.2121 11.7366H5.72858V12.2366H6.2121V11.7366ZM6.68538 12.2099C6.68538 11.9483 6.47339 11.7366 6.2121 11.7366V12.2366C6.19741 12.2366 6.18538 12.2246 6.18538 12.2099H6.68538ZM6.68538 13.7741V12.2099H6.18538V13.7741H6.68538ZM6.88195 13.9694C6.77305 13.9694 6.68538 13.8809 6.68538 13.7741H6.18538C6.18538 14.1584 6.49828 14.4694 6.88195 14.4694V13.9694ZM7.07851 13.7741C7.07851 13.8809 6.99084 13.9694 6.88195 13.9694V14.4694C7.26561 14.4694 7.57851 14.1584 7.57851 13.7741H7.07851ZM7.07851 12.2099V13.7741H7.57851V12.2099H7.07851ZM7.5518 11.7366C7.29051 11.7366 7.07851 11.9483 7.07851 12.2099H7.57851C7.57851 12.2246 7.56649 12.2366 7.5518 12.2366V11.7366ZM8.44492 11.7366H7.5518V12.2366H8.44492V11.7366ZM8.91821 12.2099C8.91821 11.9483 8.70621 11.7366 8.44492 11.7366V12.2366C8.43023 12.2366 8.41821 12.2246 8.41821 12.2099H8.91821ZM8.91821 13.7741V12.2099H8.41821V13.7741H8.91821ZM9.11477 13.9694C9.00588 13.9694 8.91821 13.8809 8.91821 13.7741H8.41821C8.41821 14.1584 8.7311 14.4694 9.11477 14.4694V13.9694ZM9.31134 13.7741C9.31134 13.8809 9.22366 13.9694 9.11477 13.9694V14.4694C9.49844 14.4694 9.81134 14.1584 9.81134 13.7741H9.31134ZM9.31134 12.2099V13.7741H9.81134V12.2099H9.31134ZM9.78462 11.7366C9.52333 11.7366 9.31134 11.9483 9.31134 12.2099H9.81134C9.81134 12.2246 9.79931 12.2366 9.78462 12.2366V11.7366ZM10.2681 11.7366H9.78462V12.2366H10.2681V11.7366ZM12.3519 7.41158C12.3519 7.11808 12.5909 6.87922 12.8834 6.87922V6.37922C12.3142 6.37922 11.8519 6.84249 11.8519 7.41158H12.3519ZM12.3519 10.5358V7.41158H11.8519V10.5358H12.3519ZM12.8834 11.0681C12.5909 11.0681 12.3519 10.8293 12.3519 10.5358H11.8519C11.8519 11.1049 12.3142 11.5681 12.8834 11.5681V11.0681ZM13.4149 10.5358C13.4149 10.8293 13.1759 11.0681 12.8834 11.0681V11.5681C13.4526 11.5681 13.9149 11.1049 13.9149 10.5358H13.4149ZM13.4149 7.41158V10.5358H13.9149V7.41158H13.4149ZM12.8834 6.87922C13.1759 6.87922 13.4149 7.11808 13.4149 7.41158H13.9149C13.9149 6.84249 13.4526 6.37922 12.8834 6.37922V6.87922ZM12.8834 11.1216C13.2068 11.1216 13.4683 10.8584 13.4683 10.5358H12.9683C12.9683 10.5835 12.9294 10.6216 12.8834 10.6216V11.1216ZM12.2985 10.5358C12.2985 10.8584 12.56 11.1216 12.8834 11.1216V10.6216C12.8374 10.6216 12.7985 10.5835 12.7985 10.5358H12.2985ZM12.2985 7.41158V10.5358H12.7985V7.41158H12.2985ZM12.8834 6.82578C12.56 6.82578 12.2985 7.08901 12.2985 7.41158H12.7985C12.7985 7.36389 12.8374 7.32578 12.8834 7.32578V6.82578ZM13.4683 7.41158C13.4683 7.08901 13.2068 6.82578 12.8834 6.82578V7.32578C12.9294 7.32578 12.9683 7.3639 12.9683 7.41158H13.4683ZM13.4683 10.5358V7.41158H12.9683V10.5358H13.4683ZM3.10888 6.37922C2.53967 6.37922 2.07739 6.84249 2.07739 7.41158H2.57739C2.57739 7.11808 2.81636 6.87922 3.10888 6.87922V6.37922ZM4.14037 7.41158C4.14037 6.84249 3.67809 6.37922 3.10888 6.37922V6.87922C3.4014 6.87922 3.64037 7.11808 3.64037 7.41158H4.14037ZM4.14037 10.5358V7.41158H3.64037V10.5358H4.14037ZM3.10888 11.5681C3.67809 11.5681 4.14037 11.1049 4.14037 10.5358H3.64037C3.64037 10.8293 3.4014 11.0681 3.10888 11.0681V11.5681ZM2.07739 10.5358C2.07739 11.1049 2.53967 11.5681 3.10888 11.5681V11.0681C2.81636 11.0681 2.57739 10.8293 2.57739 10.5358H2.07739ZM2.07739 7.41158V10.5358H2.57739V7.41158H2.07739ZM3.1938 10.5358C3.1938 10.5835 3.15486 10.6216 3.10888 10.6216V11.1216C3.43226 11.1216 3.6938 10.8584 3.6938 10.5358H3.1938ZM3.1938 7.41158V10.5358H3.6938V7.41158H3.1938ZM3.10888 7.32578C3.15486 7.32578 3.1938 7.3639 3.1938 7.41158H3.6938C3.6938 7.08901 3.43226 6.82578 3.10888 6.82578V7.32578ZM3.02396 7.41158C3.02396 7.3639 3.0629 7.32578 3.10888 7.32578V6.82578C2.7855 6.82578 2.52396 7.08901 2.52396 7.41158H3.02396ZM3.02396 10.5358V7.41158H2.52396V10.5358H3.02396ZM3.10888 10.6216C3.0629 10.6216 3.02396 10.5835 3.02396 10.5358H2.52396C2.52396 10.8584 2.78551 11.1216 3.10888 11.1216V10.6216Z"
          fill="#B0B0B0" mask="url(#path-1-outside-1_22_5041)" />
      </g>
    </symbol>

    <symbol id="icon-prod-backend" viewBox="0 0 16 17">
      <g clip-path="url(#clip0_prod-backend)">
        <path
          d="M11.9421 5.45743C11.7408 5.46146 11.5658 5.38901 11.4169 5.2401C11.272 5.09119 11.1995 4.91612 11.1995 4.71489C11.1995 4.51366 11.272 4.33859 11.4169 4.18968C11.5658 4.04076 11.7408 3.96631 11.9421 3.96631C12.1433 3.96631 12.3164 4.04076 12.4612 4.18968C12.6061 4.33859 12.6786 4.51366 12.6786 4.71489C12.6786 4.91612 12.6061 5.08918 12.4612 5.23406C12.3164 5.37895 12.1433 5.45341 11.9421 5.45743ZM11.9421 8.74756C11.7408 8.75158 11.5658 8.67914 11.4169 8.53023C11.272 8.38132 11.1995 8.20625 11.1995 8.00502C11.1995 7.80378 11.272 7.62871 11.4169 7.4798C11.5658 7.33089 11.7408 7.25644 11.9421 7.25644C12.1433 7.25644 12.3164 7.33089 12.4612 7.4798C12.6061 7.62469 12.6786 7.79976 12.6786 8.00502C12.6786 8.20625 12.6061 8.37931 12.4612 8.52419C12.3164 8.66908 12.1433 8.74353 11.9421 8.74756ZM11.9421 12.0316C11.7408 12.0357 11.5658 11.9632 11.4169 11.8143C11.272 11.6654 11.1995 11.4903 11.1995 11.2891C11.1995 11.0879 11.272 10.9128 11.4169 10.7639C11.5658 10.615 11.7408 10.5405 11.9421 10.5405C12.1433 10.5405 12.3164 10.615 12.4612 10.7639C12.6061 10.9128 12.6786 11.0879 12.6786 11.2891C12.6786 11.4903 12.6061 11.6634 12.4612 11.8083C12.3164 11.9532 12.1433 12.0276 11.9421 12.0316ZM14.5742 6.87007H1.43177V5.86191H14.5742V6.87007ZM14.5742 10.1662H1.43177V9.15807H14.5742V10.1662ZM2.8263 13.6435C2.17432 13.6435 1.6813 13.4785 1.34726 13.1485C1.01321 12.8185 0.846191 12.3315 0.846191 11.6875V4.33456C0.846191 3.69062 1.01321 3.20364 1.34726 2.87362C1.6813 2.53958 2.17432 2.37256 2.8263 2.37256H13.1615C13.8175 2.37256 14.3126 2.53958 14.6466 2.87362C14.9807 3.20364 15.1477 3.69062 15.1477 4.33456V11.6875C15.1477 12.3315 14.9807 12.8185 14.6466 13.1485C14.3126 13.4785 13.8175 13.6435 13.1615 13.6435H2.8263ZM2.89875 12.4603H13.0951C13.3728 12.4603 13.5861 12.3878 13.735 12.2429C13.884 12.094 13.9584 11.8747 13.9584 11.5849V4.43719C13.9584 4.14742 13.884 3.93009 13.735 3.7852C13.5861 3.63629 13.3728 3.56183 13.0951 3.56183H2.89875C2.61702 3.56183 2.40171 3.63629 2.2528 3.7852C2.10791 3.93009 2.03547 4.14742 2.03547 4.43719V11.5849C2.03547 11.8747 2.10791 12.094 2.2528 12.2429C2.40171 12.3878 2.61702 12.4603 2.89875 12.4603Z"
          fill="#B0B0B0" />
      </g>
    </symbol>

    <symbol id="icon-prod-ios" viewBox="0 0 16 17">
      <g clip-path="url(#clip0_prod-ios)">
        <path
          d="M3.8949 12.9432V3.06072C3.8949 2.56167 4.05387 2.15921 4.37182 1.85334C4.69378 1.54747 5.11436 1.39453 5.63353 1.39453H10.3846C10.8998 1.39453 11.3123 1.54747 11.6222 1.85334C11.9361 2.15921 12.0931 2.56167 12.0931 3.06072V12.9432C12.0931 13.4422 11.9361 13.8447 11.6222 14.1506C11.3123 14.4564 10.8998 14.6094 10.3846 14.6094H5.63353C5.11436 14.6094 4.69378 14.4564 4.37182 14.1506C4.05387 13.8447 3.8949 13.4422 3.8949 12.9432ZM5.08417 12.3335H10.9098V3.67045H5.08417V12.3335ZM8.00605 13.9393C8.15496 13.9393 8.28375 13.8849 8.39241 13.7763C8.5051 13.6676 8.56145 13.5348 8.56145 13.3778C8.56145 13.2249 8.5051 13.0941 8.39241 12.9854C8.28375 12.8768 8.15496 12.8224 8.00605 12.8224C7.84909 12.8224 7.71426 12.8768 7.60157 12.9854C7.49291 13.0941 7.43858 13.2249 7.43858 13.3778C7.43858 13.5348 7.49291 13.6676 7.60157 13.7763C7.71426 13.8849 7.84909 13.9393 8.00605 13.9393ZM6.76848 2.5657C6.76848 2.64619 6.79262 2.70857 6.84092 2.75284C6.88922 2.79711 6.9516 2.81925 7.02807 2.81925H8.96592C9.04239 2.81925 9.10477 2.79711 9.15307 2.75284C9.20136 2.70857 9.22551 2.64619 9.22551 2.5657C9.22551 2.48923 9.20136 2.42886 9.15307 2.38459C9.10477 2.33629 9.04239 2.31214 8.96592 2.31214H7.02807C6.9516 2.31214 6.88922 2.33629 6.84092 2.38459C6.79262 2.42886 6.76848 2.48923 6.76848 2.5657Z"
          fill="#B0B0B0" />
      </g>
    </symbol>

    <!-- ? -->
    <symbol id="icon-prod-ioscolor" viewBox="0 0 16 17">
      <g clip-path="url(#clip0_prod-ioscolor)">
        <rect width="16" height="16" rx="8" fill="white" />
        <rect width="16" height="16" rx="8" fill="url(#pattern0_22_5169)" />
      </g>
    </symbol>

    <symbol id="icon-prod-webapp" viewBox="0 0 16 17">
      <g clip-path="url(#clip0_prod-webapp)">
        <path
          d="M0 11.6959C0 11.5116 0.0670062 11.3551 0.201019 11.2264C0.335031 11.0943 0.498019 11.0282 0.689983 11.0282H1.84177V4.87789C1.84177 4.47448 1.95767 4.1667 2.18947 3.95456C2.42128 3.74242 2.74001 3.63635 3.14567 3.63635H12.8543C13.2781 3.63635 13.6005 3.74242 13.8214 3.95456C14.046 4.1667 14.1582 4.47448 14.1582 4.87789V11.0282H15.31C15.502 11.0282 15.665 11.0943 15.799 11.2264C15.933 11.3551 16 11.5116 16 11.6959C16 11.8767 15.933 12.0332 15.799 12.1654C15.665 12.2975 15.502 12.3636 15.31 12.3636H0.689983C0.498019 12.3636 0.335031 12.2975 0.201019 12.1654C0.0670062 12.0332 0 11.8767 0 11.6959ZM2.90662 11.0282H13.0934V5.14915C13.0934 4.98222 13.0499 4.85876 12.963 4.77877C12.8797 4.69879 12.7547 4.65879 12.5881 4.65879H3.41188C3.24527 4.65879 3.11851 4.69879 3.03158 4.77877C2.94827 4.85876 2.90662 4.98222 2.90662 5.14915V11.0282Z"
          fill="#B0B0B0" />
      </g>
    </symbol>

    <symbol id="icon-prod-website" viewBox="0 0 16 17">
      <g clip-path="url(#clip0_prod-website)">
        <path
          d="M3.51457 10.0575C2.93905 10.0575 2.50439 9.91261 2.21059 9.62284C1.9168 9.32904 1.7699 8.90042 1.7699 8.33697V1.95593C1.7699 1.39249 1.9168 0.963863 2.21059 0.670066C2.50842 0.376269 2.94307 0.22937 3.51457 0.22937H12.4734C13.0529 0.22937 13.4896 0.376269 13.7834 0.670066C14.0772 0.959839 14.2241 1.38846 14.2241 1.95593V8.33697C14.2241 8.90042 14.0772 9.32904 13.7834 9.62284C13.4896 9.91261 13.0529 10.0575 12.4734 10.0575H3.51457ZM3.58098 8.96481H12.419C12.6525 8.96481 12.8296 8.90444 12.9503 8.7837C13.0751 8.65894 13.1374 8.47783 13.1374 8.24038V2.05252C13.1374 1.80702 13.0751 1.62189 12.9503 1.49713C12.8296 1.37236 12.6525 1.30998 12.419 1.30998H3.58098C3.34352 1.30998 3.16242 1.37236 3.03765 1.49713C2.91691 1.62189 2.85655 1.80702 2.85655 2.05252V8.24038C2.85655 8.48588 2.91691 8.669 3.03765 8.78974C3.16242 8.90645 3.34352 8.96481 3.58098 8.96481ZM13.6506 8.02909C13.6707 8.53216 13.552 8.91651 13.2944 9.18214C13.0368 9.44776 12.6464 9.58058 12.1232 9.58058H3.64135C3.20669 9.58058 2.87667 9.45783 2.65129 9.21232C2.42994 8.9628 2.31322 8.59857 2.30115 8.11964L4.26315 6.35082C4.37584 6.2502 4.48652 6.17575 4.59518 6.12745C4.70385 6.07513 4.81654 6.04897 4.93325 6.04897C5.06204 6.04897 5.1868 6.07513 5.30754 6.12745C5.42828 6.17575 5.54298 6.2502 5.65164 6.35082L6.61755 7.22617L8.97799 5.11325C9.09873 5.00861 9.2235 4.93013 9.35228 4.87781C9.48107 4.82549 9.6159 4.79933 9.75676 4.79933C9.89762 4.79933 10.0365 4.8275 10.1733 4.88384C10.3101 4.93616 10.4369 5.01464 10.5536 5.11928L13.6506 8.02909ZM5.85086 5.24002C5.62146 5.24002 5.41017 5.18368 5.21699 5.07099C5.02783 4.95428 4.87691 4.80134 4.76422 4.61218C4.65153 4.419 4.59518 4.20771 4.59518 3.9783C4.59518 3.7489 4.65153 3.53962 4.76422 3.35046C4.87691 3.15728 5.02783 3.00435 5.21699 2.89166C5.41017 2.77897 5.62146 2.72262 5.85086 2.72262C6.08027 2.72262 6.28955 2.77897 6.4787 2.89166C6.66786 3.00435 6.81878 3.15728 6.93147 3.35046C7.04819 3.53962 7.10655 3.7489 7.10655 3.9783C7.10655 4.32442 6.98178 4.62224 6.73226 4.87177C6.48675 5.11727 6.19296 5.24002 5.85086 5.24002ZM2.30115 12.925C2.15224 12.925 2.02546 12.8727 1.92082 12.7681C1.82021 12.6675 1.7699 12.5427 1.7699 12.3938C1.7699 12.2489 1.82021 12.1241 1.92082 12.0195C2.02546 11.9149 2.15224 11.8625 2.30115 11.8625H13.6868C13.8357 11.8625 13.9625 11.9149 14.0671 12.0195C14.1718 12.1241 14.2241 12.2489 14.2241 12.3938C14.2241 12.5427 14.1718 12.6675 14.0671 12.7681C13.9625 12.8727 13.8357 12.925 13.6868 12.925H2.30115ZM2.30115 15.7926C2.15224 15.7926 2.02546 15.7423 1.92082 15.6417C1.82021 15.541 1.7699 15.4143 1.7699 15.2613C1.7699 15.1124 1.82021 14.9856 1.92082 14.881C2.02546 14.7804 2.15224 14.7301 2.30115 14.7301H9.80505C9.95397 14.7301 10.0787 14.7804 10.1793 14.881C10.284 14.9856 10.3363 15.1124 10.3363 15.2613C10.3363 15.4143 10.284 15.541 10.1793 15.6417C10.0787 15.7423 9.95397 15.7926 9.80505 15.7926H2.30115Z"
          fill="#B0B0B0" />
      </g>
    </symbol>

    <!-- Filter -->
    <symbol id="icon-filter-general" viewBox="0 0 16 17">
      <g clip-path="url(#clip0_filter-general)">
        <path
          d="M5.9375 5.32031C5.83594 5.32031 5.75 5.28711 5.67969 5.2207C5.61328 5.1543 5.58008 5.07031 5.58008 4.96875C5.58008 4.875 5.61328 4.79492 5.67969 4.72852C5.75 4.66211 5.83594 4.62891 5.9375 4.62891H10.0625C10.1602 4.62891 10.2422 4.66211 10.3086 4.72852C10.375 4.79492 10.4082 4.875 10.4082 4.96875C10.4082 5.07031 10.375 5.1543 10.3086 5.2207C10.2422 5.28711 10.1602 5.32031 10.0625 5.32031H5.9375ZM5.9375 7.23633C5.83594 7.23633 5.75 7.20312 5.67969 7.13672C5.61328 7.06641 5.58008 6.98242 5.58008 6.88477C5.58008 6.78711 5.61328 6.70703 5.67969 6.64453C5.75 6.57812 5.83594 6.54492 5.9375 6.54492H10.0625C10.1602 6.54492 10.2422 6.57812 10.3086 6.64453C10.375 6.70703 10.4082 6.78711 10.4082 6.88477C10.4082 6.98242 10.375 7.06641 10.3086 7.13672C10.2422 7.20312 10.1602 7.23633 10.0625 7.23633H5.9375ZM5.9375 9.14648C5.83594 9.14648 5.75 9.11523 5.67969 9.05273C5.61328 8.98633 5.58008 8.9043 5.58008 8.80664C5.58008 8.70898 5.61328 8.62695 5.67969 8.56055C5.75 8.49023 5.83594 8.45508 5.9375 8.45508H7.90625C8.00781 8.45508 8.0918 8.49023 8.1582 8.56055C8.22461 8.62695 8.25781 8.70898 8.25781 8.80664C8.25781 8.9043 8.22461 8.98633 8.1582 9.05273C8.0918 9.11523 8.00781 9.14648 7.90625 9.14648H5.9375ZM3.2832 12.1934V3.80859C3.2832 3.21875 3.43164 2.77539 3.72852 2.47852C4.02539 2.17773 4.46484 2.02734 5.04688 2.02734H10.9414C11.5273 2.02734 11.9668 2.17773 12.2598 2.47852C12.5566 2.77539 12.7051 3.21875 12.7051 3.80859V12.1934C12.7051 12.7832 12.5566 13.2266 12.2598 13.5234C11.9668 13.8203 11.5273 13.9688 10.9414 13.9688H5.04688C4.46484 13.9688 4.02539 13.8203 3.72852 13.5234C3.43164 13.2266 3.2832 12.7832 3.2832 12.1934ZM4.28516 12.1465C4.28516 12.416 4.35352 12.6211 4.49023 12.7617C4.63086 12.9062 4.83984 12.9785 5.11719 12.9785H10.8711C11.1484 12.9785 11.3574 12.9062 11.498 12.7617C11.6387 12.6211 11.709 12.416 11.709 12.1465V3.85547C11.709 3.58594 11.6387 3.38086 11.498 3.24023C11.3574 3.09961 11.1484 3.0293 10.8711 3.0293H5.11719C4.83984 3.0293 4.63086 3.09961 4.49023 3.24023C4.35352 3.38086 4.28516 3.58594 4.28516 3.85547V12.1465Z"
          fill="currentColor" />
      </g>
    </symbol>

    <symbol id="icon-filter-dev" viewBox="0 0 16 17">
      <g clip-path="url(#clip0_filter-dev)">
        <path
          d="M0.101562 7.99805C0.101562 7.91211 0.119141 7.82812 0.154297 7.74609C0.193359 7.66016 0.25 7.58594 0.324219 7.52344L3.96289 4.23633C4.0957 4.11523 4.24023 4.05664 4.39648 4.06055C4.55664 4.06445 4.69336 4.12891 4.80664 4.25391C4.91992 4.375 4.96875 4.51562 4.95312 4.67578C4.9375 4.83594 4.86719 4.97266 4.74219 5.08594L1.53125 7.99805L4.74219 10.9102C4.86719 11.0234 4.9375 11.1602 4.95312 11.3203C4.96875 11.4766 4.91992 11.6172 4.80664 11.7422C4.69336 11.8672 4.55664 11.9316 4.39648 11.9355C4.24023 11.9355 4.0957 11.875 3.96289 11.7539L0.324219 8.47266C0.25 8.41016 0.193359 8.33789 0.154297 8.25586C0.119141 8.16992 0.101562 8.08398 0.101562 7.99805ZM6.4707 13.2715C6.29883 13.2285 6.18164 13.1348 6.11914 12.9902C6.05664 12.8496 6.05078 12.6953 6.10156 12.5273L8.82617 3.16406C8.88477 2.97266 8.98047 2.84375 9.11328 2.77734C9.24609 2.70703 9.39453 2.69531 9.55859 2.74219C9.72656 2.78516 9.8457 2.875 9.91602 3.01172C9.98633 3.14453 10 3.28906 9.95703 3.44531L7.20898 12.8496C7.16211 13.0176 7.06836 13.1406 6.92773 13.2187C6.79102 13.3008 6.63867 13.3184 6.4707 13.2715ZM15.8984 7.99805C15.8984 8.08398 15.8809 8.16992 15.8457 8.25586C15.8105 8.33789 15.7559 8.41016 15.6816 8.47266L12.043 11.7539C11.9062 11.875 11.7578 11.9355 11.5977 11.9355C11.4414 11.9316 11.3086 11.8672 11.1992 11.7422C11.0898 11.6172 11.041 11.4766 11.0527 11.3203C11.0645 11.1602 11.1348 11.0234 11.2637 10.9102L14.4746 7.99805L11.2637 5.08594C11.1348 4.97266 11.0645 4.83594 11.0527 4.67578C11.041 4.51562 11.0898 4.375 11.1992 4.25391C11.3086 4.12891 11.4414 4.06445 11.5977 4.06055C11.7578 4.05664 11.9062 4.11523 12.043 4.23633L15.6816 7.52344C15.7559 7.58594 15.8105 7.66016 15.8457 7.74609C15.8809 7.82812 15.8984 7.91211 15.8984 7.99805Z"
          fill="currentColor" />
      </g>
    </symbol>

    <symbol id="icon-filter-test" viewBox="0 0 16 17">
      <g clip-path="url(#clip0_filter-test)">
        <path
          d="M2.55664 6.97266C2.55664 6.35547 2.67188 5.77734 2.90234 5.23828C3.13281 4.69531 3.45312 4.2207 3.86328 3.81445C4.27344 3.4043 4.74805 3.08398 5.28711 2.85352C5.82617 2.61914 6.4043 2.50195 7.02148 2.50195C7.64258 2.50195 8.22266 2.61914 8.76172 2.85352C9.30078 3.08398 9.77539 3.4043 10.1855 3.81445C10.5957 4.2207 10.916 4.69531 11.1465 5.23828C11.377 5.77734 11.4922 6.35547 11.4922 6.97266C11.4922 7.46484 11.416 7.93555 11.2637 8.38477C11.1113 8.83008 10.8965 9.23633 10.6191 9.60352L13.2383 12.2285C13.3047 12.3027 13.3555 12.3848 13.3906 12.4746C13.4258 12.5645 13.4434 12.6562 13.4434 12.75C13.4434 12.8945 13.4121 13.0215 13.3496 13.1309C13.2871 13.2441 13.2012 13.332 13.0918 13.3945C12.9824 13.4609 12.8574 13.4941 12.7168 13.4941C12.6191 13.4941 12.5234 13.4766 12.4297 13.4414C12.3359 13.4102 12.2539 13.3594 12.1836 13.2891L9.54688 10.6465C9.1875 10.8965 8.79492 11.0918 8.36914 11.2324C7.94336 11.373 7.49414 11.4434 7.02148 11.4434C6.4043 11.4434 5.82617 11.3281 5.28711 11.0977C4.74805 10.8672 4.27344 10.5469 3.86328 10.1367C3.45312 9.72656 3.13281 9.25195 2.90234 8.71289C2.67188 8.16992 2.55664 7.58984 2.55664 6.97266ZM3.62305 6.97266C3.62305 7.44141 3.71094 7.88281 3.88672 8.29688C4.0625 8.70703 4.30664 9.06836 4.61914 9.38086C4.93164 9.68945 5.29297 9.93164 5.70312 10.1074C6.11328 10.2832 6.55273 10.3711 7.02148 10.3711C7.49023 10.3711 7.92969 10.2832 8.33984 10.1074C8.75391 9.93164 9.11523 9.68945 9.42383 9.38086C9.73633 9.06836 9.98047 8.70703 10.1562 8.29688C10.332 7.88281 10.4199 7.44141 10.4199 6.97266C10.4199 6.50391 10.332 6.06445 10.1562 5.6543C9.98047 5.24023 9.73633 4.87891 9.42383 4.57031C9.11523 4.25781 8.75391 4.01367 8.33984 3.83789C7.92969 3.66211 7.49023 3.57422 7.02148 3.57422C6.55273 3.57422 6.11328 3.66211 5.70312 3.83789C5.29297 4.01367 4.93164 4.25781 4.61914 4.57031C4.30664 4.87891 4.0625 5.24023 3.88672 5.6543C3.71094 6.06445 3.62305 6.50391 3.62305 6.97266ZM5.32812 6.63281C5.21484 6.63281 5.12109 6.59375 5.04688 6.51562C4.97266 6.4375 4.93555 6.34375 4.93555 6.23438C4.93555 6.12109 4.97266 6.02734 5.04688 5.95312C5.12109 5.875 5.21484 5.83594 5.32812 5.83594H8.74414C8.85352 5.83594 8.94531 5.875 9.01953 5.95312C9.09375 6.02734 9.13086 6.12109 9.13086 6.23438C9.13086 6.34375 9.0918 6.4375 9.01367 6.51562C8.93945 6.59375 8.84961 6.63281 8.74414 6.63281H5.32812ZM5.32812 8.10352C5.21484 8.10352 5.12109 8.06641 5.04688 7.99219C4.97266 7.91406 4.93555 7.81836 4.93555 7.70508C4.93555 7.59961 4.97266 7.50781 5.04688 7.42969C5.12109 7.34766 5.21484 7.30664 5.32812 7.30664H7.79492C7.9082 7.30664 8.00195 7.3457 8.07617 7.42383C8.1543 7.50195 8.19336 7.5957 8.19336 7.70508C8.19336 7.81836 8.1543 7.91406 8.07617 7.99219C8.00195 8.06641 7.9082 8.10352 7.79492 8.10352H5.32812Z"
          fill="currentColor" />
      </g>
    </symbol>

    <symbol id="icon-filter-bug" viewBox="0 0 16 17">
      <g clip-path="url(#clip0_filter-bug)">
        <path
          d="M8 13.6934C7.21875 13.6934 6.48438 13.543 5.79688 13.2422C5.11328 12.9453 4.50977 12.5352 3.98633 12.0117C3.46289 11.4883 3.05078 10.8848 2.75 10.2012C2.45312 9.51367 2.30469 8.7793 2.30469 7.99805C2.30469 7.2207 2.45312 6.48828 2.75 5.80078C3.04688 5.11328 3.45703 4.50781 3.98047 3.98438C4.50781 3.46094 5.11328 3.05078 5.79688 2.75391C6.48438 2.45703 7.2168 2.30859 7.99414 2.30859C8.77148 2.30859 9.50391 2.45703 10.1914 2.75391C10.8789 3.05078 11.4844 3.46094 12.0078 3.98438C12.5312 4.50781 12.9414 5.11328 13.2383 5.80078C13.5391 6.48828 13.6895 7.2207 13.6895 7.99805C13.6895 8.7793 13.541 9.51367 13.2441 10.2012C12.9473 10.8848 12.5371 11.4883 12.0137 12.0117C11.4902 12.5352 10.8848 12.9453 10.1973 13.2422C9.50977 13.543 8.77734 13.6934 8 13.6934ZM8 12.6504C8.64453 12.6504 9.24805 12.5293 9.81055 12.2871C10.373 12.0488 10.8672 11.7168 11.293 11.291C11.7188 10.8652 12.0508 10.3711 12.2891 9.80859C12.5273 9.24609 12.6465 8.64258 12.6465 7.99805C12.6465 7.35352 12.5273 6.75 12.2891 6.1875C12.0508 5.625 11.7188 5.13086 11.293 4.70508C10.8672 4.2793 10.3711 3.94727 9.80469 3.70898C9.24219 3.4707 8.63867 3.35156 7.99414 3.35156C7.34961 3.35156 6.74609 3.4707 6.18359 3.70898C5.625 3.94727 5.13281 4.2793 4.70703 4.70508C4.28125 5.13086 3.94922 5.625 3.71094 6.1875C3.47266 6.75 3.35352 7.35352 3.35352 7.99805C3.35352 8.64258 3.47266 9.24609 3.71094 9.80859C3.94922 10.3711 4.28125 10.8652 4.70703 11.291C5.13281 11.7168 5.62695 12.0488 6.18945 12.2871C6.75195 12.5293 7.35547 12.6504 8 12.6504ZM7.99414 8.95898C7.68945 8.95898 7.5332 8.80469 7.52539 8.49609L7.44922 5.68945C7.44531 5.5332 7.49414 5.40625 7.5957 5.30859C7.69727 5.21094 7.82812 5.16211 7.98828 5.16211C8.14453 5.16211 8.27539 5.21289 8.38086 5.31445C8.48633 5.41211 8.53711 5.53906 8.5332 5.69531L8.45117 8.49609C8.44336 8.80469 8.29102 8.95898 7.99414 8.95898ZM7.99414 10.7754C7.82617 10.7754 7.67969 10.7188 7.55469 10.6055C7.43359 10.4883 7.37305 10.3477 7.37305 10.1836C7.37305 10.0195 7.43359 9.88086 7.55469 9.76758C7.67578 9.65039 7.82227 9.5918 7.99414 9.5918C8.16602 9.5918 8.3125 9.64844 8.43359 9.76172C8.55859 9.875 8.62109 10.0156 8.62109 10.1836C8.62109 10.3516 8.55859 10.4922 8.43359 10.6055C8.3125 10.7188 8.16602 10.7754 7.99414 10.7754Z"
          fill="currentColor" />
      </g>
    </symbol>

    <!-- Status -->
    <!-- 7E7E7E -->
    <!-- 16A4E3 -->
    <symbol id="icon-status-approval" viewBox="0 0 16 17">
      <g clip-path="url(#clip0_status-approval)">
        <path
          d="M0.800049 4.91718V3.22186C0.800049 2.41457 1.00317 1.8104 1.40942 1.40936C1.82088 1.00311 2.43547 0.799988 3.25317 0.799988H4.88599V2.0578H3.2688C2.87817 2.0578 2.57869 2.16197 2.37036 2.3703C2.16203 2.57343 2.05786 2.87811 2.05786 3.28436V4.91718H0.800049ZM5.9563 2.0578V0.799988H10.0266V2.0578H5.9563ZM13.925 4.91718V3.28436C13.925 2.87811 13.8183 2.57343 13.6047 2.3703C13.3964 2.16197 13.0995 2.0578 12.7141 2.0578H11.0969V0.799988H12.7297C13.5474 0.799988 14.1594 1.00311 14.5657 1.40936C14.9771 1.8104 15.1829 2.41457 15.1829 3.22186V4.91718H13.925ZM13.925 9.9953V5.98749H15.1829V9.9953H13.925ZM11.0969 15.1828V13.925H12.7141C13.0995 13.925 13.3964 13.8234 13.6047 13.6203C13.8183 13.412 13.925 13.1047 13.925 12.6984V11.0656H15.1829V12.7609C15.1829 13.5682 14.9771 14.1724 14.5657 14.5734C14.1594 14.9797 13.5474 15.1828 12.7297 15.1828H11.0969ZM5.9563 15.1828V13.925H10.0266V15.1828H5.9563ZM3.25317 15.1828C2.43547 15.1828 1.82088 14.9797 1.40942 14.5734C1.00317 14.1724 0.800049 13.5682 0.800049 12.7609V11.0656H2.05786V12.6984C2.05786 13.1047 2.16203 13.412 2.37036 13.6203C2.57869 13.8234 2.87817 13.925 3.2688 13.925H4.88599V15.1828H3.25317ZM0.800049 9.9953V5.98749H2.05786V9.9953H0.800049ZM7.84692 9.59686C7.43026 9.59686 7.22192 9.39113 7.22192 8.97968C7.22192 8.96405 7.22192 8.94843 7.22192 8.9328C7.22192 8.91197 7.22192 8.89374 7.22192 8.87811C7.22192 8.4927 7.31307 8.1828 7.49536 7.94843C7.68286 7.71405 7.91724 7.50051 8.19849 7.3078C8.54224 7.06822 8.79744 6.86509 8.96411 6.69843C9.13078 6.52655 9.21411 6.3078 9.21411 6.04218C9.21411 5.7453 9.10734 5.50572 8.8938 5.32343C8.68026 5.13593 8.3938 5.04218 8.03442 5.04218C7.86255 5.04218 7.70109 5.07082 7.55005 5.12811C7.40422 5.1854 7.2714 5.26874 7.15161 5.37811C7.03182 5.48228 6.92505 5.60988 6.8313 5.76093L6.69067 5.94843C6.62297 6.04218 6.54224 6.1177 6.44849 6.17499C6.35994 6.23228 6.25057 6.26093 6.12036 6.26093C5.99015 6.26093 5.86776 6.21665 5.75317 6.12811C5.63859 6.03436 5.5813 5.89895 5.5813 5.72186C5.5813 5.65415 5.58651 5.58905 5.59692 5.52655C5.60734 5.46405 5.62297 5.40155 5.6438 5.33905C5.75317 4.97968 6.0188 4.66457 6.44067 4.39374C6.86776 4.1177 7.41724 3.97968 8.08911 3.97968C8.53182 3.97968 8.94067 4.0578 9.31567 4.21405C9.69067 4.36509 9.99276 4.58905 10.2219 4.88593C10.4563 5.1828 10.5735 5.54738 10.5735 5.97968C10.5735 6.44843 10.4511 6.81822 10.2063 7.08905C9.96151 7.35988 9.65161 7.6203 9.27661 7.8703C9.00057 8.05259 8.79744 8.22447 8.66724 8.38593C8.53703 8.54218 8.47192 8.72968 8.47192 8.94843C8.47192 8.95884 8.47192 8.97447 8.47192 8.9953C8.47192 9.01093 8.47192 9.02655 8.47192 9.04218C8.47192 9.19322 8.41463 9.32343 8.30005 9.4328C8.19067 9.54218 8.03963 9.59686 7.84692 9.59686ZM7.82349 11.925C7.59953 11.925 7.40422 11.8469 7.23755 11.6906C7.07088 11.5292 6.98755 11.3364 6.98755 11.1125C6.98755 10.8885 7.06828 10.6984 7.22974 10.5422C7.3964 10.3807 7.59432 10.3 7.82349 10.3C8.05265 10.3 8.25057 10.3781 8.41724 10.5344C8.5839 10.6906 8.66724 10.8833 8.66724 11.1125C8.66724 11.3417 8.5839 11.5344 8.41724 11.6906C8.25057 11.8469 8.05265 11.925 7.82349 11.925Z"
          fill="currentColor" />
      </g>
    </symbol>

    <symbol id="icon-status-closed" viewBox="0 0 16 17">
      <g clip-path="url(#clip0_status-closed)">
        <path
          d="M3.25317 15.1828C2.43547 15.1828 1.82088 14.9797 1.40942 14.5734C1.00317 14.1724 0.800049 13.5682 0.800049 12.7609V3.22186C0.800049 2.41457 1.00317 1.8104 1.40942 1.40936C1.82088 1.00311 2.43547 0.799988 3.25317 0.799988H12.7297C13.5474 0.799988 14.1594 1.00311 14.5657 1.40936C14.9771 1.8104 15.1829 2.41457 15.1829 3.22186V12.7609C15.1829 13.5682 14.9771 14.1724 14.5657 14.5734C14.1594 14.9797 13.5474 15.1828 12.7297 15.1828H3.25317ZM3.2688 13.925H12.7141C13.0995 13.925 13.3964 13.8234 13.6047 13.6203C13.8183 13.412 13.925 13.1047 13.925 12.6984V3.28436C13.925 2.87811 13.8183 2.57343 13.6047 2.3703C13.3964 2.16197 13.0995 2.0578 12.7141 2.0578H3.2688C2.87817 2.0578 2.57869 2.16197 2.37036 2.3703C2.16203 2.57343 2.05786 2.87811 2.05786 3.28436V12.6984C2.05786 13.1047 2.16203 13.412 2.37036 13.6203C2.57869 13.8234 2.87817 13.925 3.2688 13.925ZM7.1438 11.6828C7.01359 11.6828 6.8938 11.6542 6.78442 11.5969C6.68026 11.5396 6.57869 11.4484 6.47974 11.3234L4.57349 8.97968C4.45369 8.81822 4.3938 8.65676 4.3938 8.4953C4.3938 8.32343 4.45109 8.17759 4.56567 8.0578C4.68547 7.9328 4.82869 7.8703 4.99536 7.8703C5.10474 7.8703 5.20369 7.89374 5.29224 7.94061C5.38599 7.98228 5.47974 8.06561 5.57349 8.19061L7.11255 10.1828L10.3547 4.97968C10.5006 4.7453 10.6829 4.62811 10.9016 4.62811C11.0631 4.62811 11.2089 4.6802 11.3391 4.78436C11.4693 4.88853 11.5344 5.02655 11.5344 5.19843C11.5344 5.28697 11.5136 5.37551 11.4719 5.46405C11.4355 5.54738 11.3938 5.62551 11.3469 5.69843L7.77661 11.3234C7.62036 11.563 7.40942 11.6828 7.1438 11.6828Z"
          fill="currentColor" />
      </g>
    </symbol>

    <symbol id="icon-status-deploy" viewBox="0 0 16 17">
      <g clip-path="url(#clip0_status-deploy)">
        <path
          d="M3.52344 15.1828C2.7526 15.1828 2.16667 14.9875 1.76562 14.5969C1.36458 14.2062 1.16406 13.6255 1.16406 12.8547V4.51093H2.42188V12.9172C2.42188 13.2661 2.51562 13.5344 2.70312 13.7219C2.89062 13.9094 3.15885 14.0031 3.50781 14.0031H12.1094C12.4531 14.0031 12.7188 13.9094 12.9062 13.7219C13.099 13.5344 13.1953 13.2661 13.1953 12.9172V4.51093H14.4531V12.8547C14.4531 13.6203 14.2526 14.1984 13.8516 14.5891C13.4505 14.9849 12.8646 15.1828 12.0938 15.1828H3.52344ZM5.23438 8.2453C5.06771 8.2453 4.93229 8.19322 4.82812 8.08905C4.72917 7.98488 4.67969 7.84686 4.67969 7.67499V7.42499C4.67969 7.25311 4.72917 7.1177 4.82812 7.01874C4.93229 6.91457 5.06771 6.86249 5.23438 6.86249H10.3906C10.5573 6.86249 10.6927 6.91457 10.7969 7.01874C10.901 7.1177 10.9531 7.25311 10.9531 7.42499V7.67499C10.9531 7.84686 10.901 7.98488 10.7969 8.08905C10.6927 8.19322 10.5573 8.2453 10.3906 8.2453H5.23438ZM1.48438 5.09686C1.00521 5.09686 0.638021 4.95624 0.382812 4.67499C0.127604 4.39374 0 4.01613 0 3.54218V2.35468C0 1.87551 0.132812 1.4979 0.398438 1.22186C0.664062 0.940613 1.02604 0.799988 1.48438 0.799988H14.1328C14.612 0.799988 14.9792 0.940613 15.2344 1.22186C15.4896 1.4979 15.6172 1.87551 15.6172 2.35468V3.54218C15.6172 4.01613 15.4896 4.39374 15.2344 4.67499C14.9792 4.95624 14.612 5.09686 14.1328 5.09686H1.48438ZM1.80469 3.91718H13.8203C14.0182 3.91718 14.1562 3.8729 14.2344 3.78436C14.3177 3.69582 14.3594 3.5552 14.3594 3.36249V2.53436C14.3594 2.33645 14.3177 2.19582 14.2344 2.11249C14.1562 2.02395 14.0182 1.97968 13.8203 1.97968H1.80469C1.60677 1.97968 1.46615 2.02395 1.38281 2.11249C1.29948 2.19582 1.25781 2.33645 1.25781 2.53436V3.36249C1.25781 3.5552 1.29948 3.69582 1.38281 3.78436C1.46615 3.8729 1.60677 3.91718 1.80469 3.91718Z"
          fill="currentColor" />
      </g>
    </symbol>

    <symbol id="icon-status-execution" viewBox="0 0 16 17">
      <g clip-path="url(#clip0_status-execution)">
        <path
          d="M0.800049 7.64099C0.800049 7.47693 0.848877 7.34021 0.946533 7.23083C1.0481 7.11755 1.19849 7.04529 1.39771 7.01404C1.76099 6.95935 2.02075 6.82654 2.177 6.6156C2.33325 6.40466 2.41138 6.06482 2.41138 5.59607V3.94373C2.41138 3.15466 2.59497 2.56677 2.96216 2.18005C3.32935 1.79333 3.89575 1.59998 4.66138 1.59998C4.77856 1.59998 4.87817 1.61365 4.96021 1.64099C5.05786 1.67615 5.13208 1.72888 5.18286 1.79919C5.23755 1.8656 5.26489 1.95154 5.26489 2.05701C5.26489 2.26013 5.17896 2.39099 5.00708 2.44958C4.97583 2.4613 4.94067 2.47107 4.90161 2.47888C4.86255 2.48279 4.81958 2.48669 4.77271 2.4906C4.28052 2.52576 3.93286 2.66052 3.72974 2.8949C3.53052 3.12927 3.43091 3.51794 3.43091 4.06091V6.01208C3.43091 6.50818 3.30591 6.89294 3.05591 7.16638C2.80591 7.43982 2.45239 7.59802 1.99536 7.64099C1.98755 7.64099 1.98364 7.6449 1.98364 7.65271C1.98364 7.66052 1.98755 7.66443 1.99536 7.66443C2.45239 7.7074 2.80591 7.8656 3.05591 8.13904C3.30591 8.41248 3.43091 8.79724 3.43091 9.29333V11.2386C3.43091 11.7816 3.53052 12.1703 3.72974 12.4047C3.93286 12.6429 4.28052 12.7797 4.77271 12.8148C4.80786 12.8148 4.83911 12.8168 4.86646 12.8207C4.89771 12.8285 4.92896 12.8363 4.96021 12.8441C5.16333 12.8949 5.26489 13.0277 5.26489 13.2426C5.26489 13.3402 5.2395 13.4242 5.18872 13.4945C5.14185 13.5648 5.07349 13.6195 4.98364 13.6586C4.90161 13.6859 4.81372 13.6996 4.71997 13.6996C3.93091 13.6996 3.34888 13.5082 2.97388 13.1254C2.59888 12.7426 2.41138 12.1527 2.41138 11.3558V9.70935C2.41138 9.23669 2.33325 8.8949 2.177 8.68396C2.02075 8.47302 1.76099 8.34021 1.39771 8.28552C1.19849 8.25037 1.0481 8.1781 0.946533 8.06873C0.848877 7.95544 0.800049 7.81287 0.800049 7.64099ZM15.5247 7.64099C15.5247 7.81287 15.4739 7.95544 15.3723 8.06873C15.2747 8.1781 15.1243 8.25037 14.9211 8.28552C14.5579 8.34021 14.2981 8.47302 14.1418 8.68396C13.9856 8.8949 13.9075 9.23669 13.9075 9.70935V11.3558C13.9075 12.1527 13.72 12.7426 13.345 13.1254C12.9739 13.5082 12.3918 13.6996 11.5989 13.6996C11.509 13.6996 11.4231 13.6859 11.3411 13.6586C11.2473 13.6195 11.175 13.5648 11.1243 13.4945C11.0774 13.4242 11.054 13.3402 11.054 13.2426C11.054 13.0277 11.1575 12.8949 11.3645 12.8441C11.3918 12.8363 11.4192 12.8285 11.4465 12.8207C11.4778 12.8168 11.511 12.8148 11.5461 12.8148C12.0383 12.7797 12.386 12.6429 12.5891 12.4047C12.7922 12.1703 12.8938 11.7816 12.8938 11.2386V9.29333C12.8938 8.79724 13.0168 8.41248 13.2629 8.13904C13.5129 7.8656 13.8665 7.7074 14.3235 7.66443C14.3313 7.66443 14.3352 7.66052 14.3352 7.65271C14.3352 7.6449 14.3313 7.64099 14.3235 7.64099C13.8665 7.59802 13.5129 7.43982 13.2629 7.16638C13.0168 6.89294 12.8938 6.50818 12.8938 6.01208V4.06091C12.8938 3.51794 12.7922 3.12927 12.5891 2.8949C12.386 2.66052 12.0383 2.52576 11.5461 2.4906C11.4993 2.48669 11.4563 2.48279 11.4172 2.47888C11.3782 2.47107 11.345 2.4613 11.3176 2.44958C11.1418 2.39099 11.054 2.26013 11.054 2.05701C11.054 1.95154 11.0793 1.8656 11.1301 1.79919C11.1848 1.72888 11.2629 1.67615 11.3645 1.64099C11.4465 1.61365 11.5442 1.59998 11.6575 1.59998C12.4231 1.59998 12.9895 1.79333 13.3567 2.18005C13.7239 2.56677 13.9075 3.15466 13.9075 3.94373V5.59607C13.9075 6.06482 13.9856 6.40466 14.1418 6.6156C14.2981 6.82654 14.5579 6.95935 14.9211 7.01404C15.1243 7.04529 15.2747 7.11755 15.3723 7.23083C15.4739 7.34021 15.5247 7.47693 15.5247 7.64099ZM5.4231 8.48474C5.18872 8.48474 4.98755 8.40271 4.81958 8.23865C4.65552 8.07068 4.57349 7.87146 4.57349 7.64099C4.57349 7.40662 4.65552 7.2074 4.81958 7.04333C4.98755 6.87537 5.18872 6.79138 5.4231 6.79138C5.65356 6.79138 5.85278 6.87537 6.02075 7.04333C6.18872 7.2074 6.27271 7.40662 6.27271 7.64099C6.27271 7.87146 6.18872 8.07068 6.02075 8.23865C5.85669 8.40271 5.65747 8.48474 5.4231 8.48474ZM8.15356 8.48474C7.9231 8.48474 7.72388 8.40271 7.55591 8.23865C7.39185 8.07068 7.30981 7.87146 7.30981 7.64099C7.30981 7.40662 7.39185 7.2074 7.55591 7.04333C7.72388 6.87537 7.9231 6.79138 8.15356 6.79138C8.38794 6.79138 8.58716 6.87537 8.75122 7.04333C8.91919 7.2074 9.00317 7.40662 9.00317 7.64099C9.00317 7.87146 8.91919 8.07068 8.75122 8.23865C8.58716 8.40271 8.38794 8.48474 8.15356 8.48474ZM10.8899 8.48474C10.6555 8.48474 10.4543 8.40271 10.2864 8.23865C10.1223 8.07068 10.0403 7.87146 10.0403 7.64099C10.0403 7.40662 10.1223 7.2074 10.2864 7.04333C10.4543 6.87537 10.6555 6.79138 10.8899 6.79138C11.1243 6.79138 11.3235 6.87537 11.4875 7.04333C11.6555 7.2074 11.7395 7.40662 11.7395 7.64099C11.7395 7.87146 11.6555 8.07068 11.4875 8.23865C11.3235 8.40271 11.1243 8.48474 10.8899 8.48474Z"
          fill="currentColor" />
      </g>
    </symbol>

    <symbol id="icon-status-review" viewBox="0 0 16 17">
      <g clip-path="url(#clip0_status-review)">
        <path fill-rule="evenodd" clip-rule="evenodd"
          d="M3.25293 15.1829C2.43522 15.1829 1.82064 14.9797 1.40918 14.5735C1.00293 14.1724 0.799805 13.5683 0.799805 12.761V3.22192C0.799805 2.41463 1.00293 1.81047 1.40918 1.40942C1.82064 1.00317 2.43522 0.800049 3.25293 0.800049H12.7295C13.5472 0.800049 14.1592 1.00317 14.5654 1.40942C14.9769 1.81047 15.1826 2.41463 15.1826 3.22192V12.761C15.1826 13.5683 14.9769 14.1724 14.5654 14.5735C14.1592 14.9797 13.5472 15.1829 12.7295 15.1829H3.25293ZM3.26855 13.925H12.7139C13.0993 13.925 13.3962 13.8235 13.6045 13.6204C13.818 13.412 13.9248 13.1047 13.9248 12.6985V3.28442C13.9248 2.87817 13.818 2.57349 13.6045 2.37036C13.3962 2.16203 13.0993 2.05786 12.7139 2.05786H3.26855C2.87793 2.05786 2.57845 2.16203 2.37012 2.37036C2.16178 2.57349 2.05762 2.87817 2.05762 3.28442V12.6985C2.05762 13.1047 2.16178 13.412 2.37012 13.6204C2.57845 13.8235 2.87793 13.925 3.26855 13.925ZM3.94721 9.22361C4.38041 8.35722 4.96022 7.70325 5.61403 7.25357C5.53858 7.49476 5.5 7.74642 5.5 8C5.5 8.3283 5.56466 8.65339 5.6903 8.95671C5.81594 9.26002 6.00009 9.53562 6.23223 9.76777C6.46438 9.99991 6.73998 10.1841 7.04329 10.3097C7.34661 10.4353 7.6717 10.5 8 10.5C8.66304 10.5 9.29893 10.2366 9.76777 9.76777C10.2366 9.29893 10.5 8.66304 10.5 8C10.5 7.74449 10.4609 7.49302 10.386 7.25358C11.0398 7.70325 11.6196 8.35722 12.0528 9.22361C12.1763 9.4706 12.4766 9.57071 12.7236 9.44721C12.9706 9.32372 13.0707 9.02338 12.9472 8.77639C11.8681 6.61817 9.95156 5.5 8 5.5C6.04844 5.5 4.1319 6.61817 3.05279 8.77639C2.92929 9.02338 3.0294 9.32372 3.27639 9.44721C3.52338 9.57071 3.82372 9.4706 3.94721 9.22361ZM7.42597 6.61418C7.60796 6.5388 7.80302 6.5 8 6.5C8.39783 6.5 8.77936 6.65804 9.06066 6.93934C9.34196 7.22064 9.5 7.60217 9.5 8C9.5 8.39783 9.34196 8.77936 9.06066 9.06066C8.77936 9.34196 8.39783 9.5 8 9.5C7.80302 9.5 7.60796 9.4612 7.42597 9.38582C7.24399 9.31044 7.07863 9.19995 6.93934 9.06066C6.80005 8.92137 6.68956 8.75601 6.61418 8.57403C6.5388 8.39204 6.5 8.19698 6.5 8C6.5 7.80302 6.5388 7.60796 6.61418 7.42597C6.68956 7.24399 6.80005 7.07863 6.93934 6.93934C7.07863 6.80005 7.24399 6.68956 7.42597 6.61418Z"
          fill="currentColor" />
      </g>
    </symbol>

    <symbol id="icon-status-test" viewBox="0 0 16 17">
      <g clip-path="url(#clip0_status-test)">
        <path
          d="M2.55664 6.97266C2.55664 6.35547 2.67188 5.77734 2.90234 5.23828C3.13281 4.69531 3.45312 4.2207 3.86328 3.81445C4.27344 3.4043 4.74805 3.08398 5.28711 2.85352C5.82617 2.61914 6.4043 2.50195 7.02148 2.50195C7.64258 2.50195 8.22266 2.61914 8.76172 2.85352C9.30078 3.08398 9.77539 3.4043 10.1855 3.81445C10.5957 4.2207 10.916 4.69531 11.1465 5.23828C11.377 5.77734 11.4922 6.35547 11.4922 6.97266C11.4922 7.46484 11.416 7.93555 11.2637 8.38477C11.1113 8.83008 10.8965 9.23633 10.6191 9.60352L13.2383 12.2285C13.3047 12.3027 13.3555 12.3848 13.3906 12.4746C13.4258 12.5645 13.4434 12.6562 13.4434 12.75C13.4434 12.8945 13.4121 13.0215 13.3496 13.1309C13.2871 13.2441 13.2012 13.332 13.0918 13.3945C12.9824 13.4609 12.8574 13.4941 12.7168 13.4941C12.6191 13.4941 12.5234 13.4766 12.4297 13.4414C12.3359 13.4102 12.2539 13.3594 12.1836 13.2891L9.54688 10.6465C9.1875 10.8965 8.79492 11.0918 8.36914 11.2324C7.94336 11.373 7.49414 11.4434 7.02148 11.4434C6.4043 11.4434 5.82617 11.3281 5.28711 11.0977C4.74805 10.8672 4.27344 10.5469 3.86328 10.1367C3.45312 9.72656 3.13281 9.25195 2.90234 8.71289C2.67188 8.16992 2.55664 7.58984 2.55664 6.97266ZM3.62305 6.97266C3.62305 7.44141 3.71094 7.88281 3.88672 8.29688C4.0625 8.70703 4.30664 9.06836 4.61914 9.38086C4.93164 9.68945 5.29297 9.93164 5.70312 10.1074C6.11328 10.2832 6.55273 10.3711 7.02148 10.3711C7.49023 10.3711 7.92969 10.2832 8.33984 10.1074C8.75391 9.93164 9.11523 9.68945 9.42383 9.38086C9.73633 9.06836 9.98047 8.70703 10.1562 8.29688C10.332 7.88281 10.4199 7.44141 10.4199 6.97266C10.4199 6.50391 10.332 6.06445 10.1562 5.6543C9.98047 5.24023 9.73633 4.87891 9.42383 4.57031C9.11523 4.25781 8.75391 4.01367 8.33984 3.83789C7.92969 3.66211 7.49023 3.57422 7.02148 3.57422C6.55273 3.57422 6.11328 3.66211 5.70312 3.83789C5.29297 4.01367 4.93164 4.25781 4.61914 4.57031C4.30664 4.87891 4.0625 5.24023 3.88672 5.6543C3.71094 6.06445 3.62305 6.50391 3.62305 6.97266ZM5.32812 6.63281C5.21484 6.63281 5.12109 6.59375 5.04688 6.51562C4.97266 6.4375 4.93555 6.34375 4.93555 6.23438C4.93555 6.12109 4.97266 6.02734 5.04688 5.95312C5.12109 5.875 5.21484 5.83594 5.32812 5.83594H8.74414C8.85352 5.83594 8.94531 5.875 9.01953 5.95312C9.09375 6.02734 9.13086 6.12109 9.13086 6.23438C9.13086 6.34375 9.0918 6.4375 9.01367 6.51562C8.93945 6.59375 8.84961 6.63281 8.74414 6.63281H5.32812ZM5.32812 8.10352C5.21484 8.10352 5.12109 8.06641 5.04688 7.99219C4.97266 7.91406 4.93555 7.81836 4.93555 7.70508C4.93555 7.59961 4.97266 7.50781 5.04688 7.42969C5.12109 7.34766 5.21484 7.30664 5.32812 7.30664H7.79492C7.9082 7.30664 8.00195 7.3457 8.07617 7.42383C8.1543 7.50195 8.19336 7.5957 8.19336 7.70508C8.19336 7.81836 8.1543 7.91406 8.07617 7.99219C8.00195 8.06641 7.9082 8.10352 7.79492 8.10352H5.32812Z"
          fill="currentColor" />
      </g>
    </symbol>

    <!-- Types -->
    <symbol id="icon-type-analitics" viewBox="0 0 16 17">
      <g clip-path="url(#clip0_type-analitics)">
        <circle cx="8" cy="8" r="8" fill="#DA7B24" />
        <path
          d="M6.35547 7.68359C6.2487 7.68359 6.15755 7.64583 6.08203 7.57031C6.00651 7.49219 5.96875 7.40104 5.96875 7.29688C5.96875 7.1901 6.00651 7.09896 6.08203 7.02344C6.15755 6.94792 6.2487 6.91016 6.35547 6.91016C6.46224 6.91016 6.55339 6.94792 6.62891 7.02344C6.70443 7.09635 6.74219 7.1875 6.74219 7.29688C6.74219 7.40365 6.70443 7.49479 6.62891 7.57031C6.55339 7.64583 6.46224 7.68359 6.35547 7.68359ZM6.35547 9.11328C6.24609 9.11328 6.15365 9.07552 6.07812 9C6.00521 8.92448 5.96875 8.83333 5.96875 8.72656C5.96875 8.61979 6.00651 8.52995 6.08203 8.45703C6.15755 8.38151 6.2487 8.34375 6.35547 8.34375C6.46224 8.34375 6.55339 8.38021 6.62891 8.45312C6.70443 8.52604 6.74219 8.61719 6.74219 8.72656C6.74219 8.83333 6.70443 8.92448 6.62891 9C6.55339 9.07552 6.46224 9.11328 6.35547 9.11328ZM6.35547 10.625C6.2487 10.625 6.15755 10.5872 6.08203 10.5117C6.00651 10.4362 5.96875 10.3451 5.96875 10.2383C5.96875 10.1315 6.00651 10.0404 6.08203 9.96484C6.15755 9.88932 6.2487 9.85156 6.35547 9.85156C6.46224 9.85156 6.55339 9.88932 6.62891 9.96484C6.70443 10.0404 6.74219 10.1315 6.74219 10.2383C6.74219 10.3451 6.70443 10.4362 6.62891 10.5117C6.55339 10.5872 6.46224 10.625 6.35547 10.625ZM7.48828 7.60547C7.40234 7.60547 7.32812 7.57552 7.26562 7.51562C7.20573 7.45312 7.17578 7.38021 7.17578 7.29688C7.17578 7.21094 7.20573 7.13672 7.26562 7.07422C7.32812 7.01172 7.40234 6.98047 7.48828 6.98047H9.71875C9.80469 6.98047 9.8776 7.01172 9.9375 7.07422C10 7.13672 10.0312 7.21094 10.0312 7.29688C10.0312 7.38021 10 7.45312 9.9375 7.51562C9.8776 7.57552 9.80469 7.60547 9.71875 7.60547H7.48828ZM7.48828 9.03906C7.39974 9.03906 7.32552 9.00911 7.26562 8.94922C7.20573 8.88672 7.17578 8.8125 7.17578 8.72656C7.17578 8.64062 7.20573 8.56771 7.26562 8.50781C7.32552 8.44792 7.39974 8.41797 7.48828 8.41797H9.71875C9.80469 8.41797 9.8776 8.44792 9.9375 8.50781C10 8.56771 10.0312 8.64062 10.0312 8.72656C10.0312 8.8125 10.0013 8.88672 9.94141 8.94922C9.88151 9.00911 9.80729 9.03906 9.71875 9.03906H7.48828ZM7.48828 10.5508C7.40234 10.5508 7.32812 10.5208 7.26562 10.4609C7.20573 10.3984 7.17578 10.3242 7.17578 10.2383C7.17578 10.1523 7.20573 10.0807 7.26562 10.0234C7.32552 9.96354 7.39974 9.93359 7.48828 9.93359H9.71875C9.80469 9.93359 9.8776 9.96354 9.9375 10.0234C10 10.0807 10.0312 10.1523 10.0312 10.2383C10.0312 10.3242 10 10.3984 9.9375 10.4609C9.8776 10.5208 9.80469 10.5508 9.71875 10.5508H7.48828ZM5.92969 12.75H10.0703C10.4948 12.75 10.8203 12.6354 11.0469 12.4062C11.2734 12.1771 11.3867 11.8477 11.3867 11.418V5.51562C11.3867 5.08594 11.2747 4.75651 11.0508 4.52734C10.8268 4.29557 10.5091 4.17969 10.0977 4.17969H10.0234C10.0339 4.20573 10.0417 4.23438 10.0469 4.26562C10.0521 4.29427 10.0547 4.32292 10.0547 4.35156V4.80078C10.0547 5.05599 9.97526 5.26693 9.81641 5.43359C9.66016 5.59766 9.45443 5.67969 9.19922 5.67969H6.79688C6.54427 5.67969 6.33854 5.59766 6.17969 5.43359C6.02344 5.26693 5.94531 5.05599 5.94531 4.80078V4.35156C5.94531 4.32292 5.94792 4.29427 5.95312 4.26562C5.95833 4.23438 5.96615 4.20573 5.97656 4.17969H5.89844C5.48958 4.17969 5.17318 4.29557 4.94922 4.52734C4.72526 4.75651 4.61328 5.08594 4.61328 5.51562V11.418C4.61328 11.8477 4.72656 12.1771 4.95312 12.4062C5.17969 12.6354 5.50521 12.75 5.92969 12.75ZM6.79688 5.21094H9.19922C9.32161 5.21094 9.41667 5.17578 9.48438 5.10547C9.55208 5.03255 9.58594 4.93099 9.58594 4.80078V4.39062C9.58594 4.26042 9.55208 4.16016 9.48438 4.08984C9.41667 4.01693 9.32161 3.98047 9.19922 3.98047H8.89062C8.875 3.74609 8.78125 3.54818 8.60938 3.38672C8.4401 3.22266 8.23698 3.14062 8 3.14062C7.76302 3.14062 7.55859 3.22266 7.38672 3.38672C7.21745 3.54818 7.125 3.74609 7.10938 3.98047H6.79688C6.67708 3.98047 6.58333 4.01693 6.51562 4.08984C6.44792 4.16016 6.41406 4.26042 6.41406 4.39062V4.80078C6.41406 4.93099 6.44792 5.03255 6.51562 5.10547C6.58333 5.17578 6.67708 5.21094 6.79688 5.21094ZM8 4.35938C7.90365 4.35938 7.82161 4.32552 7.75391 4.25781C7.6862 4.1875 7.65234 4.10547 7.65234 4.01172C7.65234 3.91536 7.6862 3.83333 7.75391 3.76562C7.82161 3.69792 7.90365 3.66406 8 3.66406C8.09635 3.66406 8.17839 3.69792 8.24609 3.76562C8.3138 3.83333 8.34766 3.91536 8.34766 4.01172C8.34766 4.10547 8.3138 4.1875 8.24609 4.25781C8.17839 4.32552 8.09635 4.35938 8 4.35938Z"
          fill="white" />
      </g>
    </symbol>

    <symbol id="icon-type-backend" viewBox="0 0 16 17">
      <g clip-path="url(#clip0_type-backend)">
        <circle cx="8" cy="8" r="8" fill="#5999B7" />
        <path
          d="M2.04688 8.17969C2.04688 8.26823 2.06641 8.35678 2.10547 8.44532C2.14453 8.53125 2.20312 8.60938 2.28125 8.67969L4.66406 10.8281C4.80469 10.9557 4.95964 11.0169 5.12891 11.0117C5.30078 11.0065 5.44661 10.9362 5.56641 10.8008C5.6888 10.6654 5.74349 10.513 5.73047 10.3438C5.72005 10.1719 5.64583 10.0234 5.50781 9.89844L3.60547 8.17969L5.50781 6.45704C5.64583 6.33204 5.72005 6.1849 5.73047 6.01563C5.74349 5.84375 5.6888 5.69011 5.56641 5.55469C5.44661 5.42188 5.30078 5.35287 5.12891 5.34766C4.95964 5.33985 4.80469 5.39974 4.66406 5.52735L2.28125 7.67579C2.20312 7.7461 2.14453 7.82553 2.10547 7.91407C2.06641 8.00261 2.04688 8.09115 2.04688 8.17969ZM6.87891 12.0234C7.05599 12.0755 7.21875 12.0586 7.36719 11.9727C7.51562 11.8893 7.61719 11.7565 7.67188 11.5742L9.55078 5.125C9.60547 4.95053 9.59245 4.78907 9.51172 4.64063C9.43359 4.49219 9.30599 4.39323 9.12891 4.34375C8.95182 4.29428 8.78906 4.3099 8.64062 4.39063C8.49479 4.47136 8.39453 4.60547 8.33984 4.79297L6.46484 11.2227C6.41016 11.405 6.42057 11.5716 6.49609 11.7227C6.57161 11.8737 6.69922 11.974 6.87891 12.0234ZM13.9492 8.17969C13.9492 8.09115 13.9297 8.00261 13.8906 7.91407C13.8516 7.82553 13.793 7.7461 13.7148 7.67579L11.3359 5.52735C11.1927 5.39974 11.0352 5.33985 10.8633 5.34766C10.694 5.35287 10.5495 5.42188 10.4297 5.55469C10.3073 5.69011 10.2513 5.84375 10.2617 6.01563C10.2747 6.1849 10.3503 6.33204 10.4883 6.45704L12.3906 8.17969L10.4883 9.89844C10.3503 10.0234 10.2747 10.1719 10.2617 10.3438C10.2513 10.513 10.3073 10.6654 10.4297 10.8008C10.5495 10.9362 10.694 11.0065 10.8633 11.0117C11.0352 11.0169 11.1927 10.9557 11.3359 10.8281L13.7148 8.67969C13.793 8.60938 13.8516 8.53125 13.8906 8.44532C13.9297 8.35678 13.9492 8.26823 13.9492 8.17969Z"
          fill="white" />
      </g>
    </symbol>

    <symbol id="icon-type-bug" viewBox="0 0 16 17">
      <g clip-path="url(#clip0_type-bug)">
        <rect width="16" height="16" rx="8" fill="currentColor" />
        <path
          d="M8.00435 9.71323C7.79523 9.71323 7.63338 9.65308 7.5188 9.53276C7.40708 9.41245 7.34836 9.24487 7.34263 9.03003L7.26099 4.91792C7.26099 4.88927 7.25955 4.86206 7.25669 4.83628C7.25669 4.80763 7.25669 4.78328 7.25669 4.76323C7.25669 4.53407 7.32544 4.3536 7.46294 4.22183C7.60044 4.09006 7.78091 4.02417 8.00435 4.02417C8.23065 4.02417 8.41112 4.09006 8.54575 4.22183C8.68039 4.3536 8.74771 4.53407 8.74771 4.76323C8.74771 4.78328 8.74771 4.80763 8.74771 4.83628C8.74771 4.86206 8.74627 4.88927 8.74341 4.91792L8.67036 9.03003C8.66463 9.24487 8.60448 9.41245 8.48989 9.53276C8.37531 9.65308 8.21346 9.71323 8.00435 9.71323ZM8.00435 12.2441C7.84393 12.2441 7.69784 12.2069 7.56606 12.1324C7.43429 12.0579 7.3283 11.9562 7.2481 11.8273C7.17075 11.7013 7.13208 11.5609 7.13208 11.4062C7.13208 11.2515 7.17075 11.1111 7.2481 10.9851C7.3283 10.8591 7.43429 10.7588 7.56606 10.6843C7.69784 10.6098 7.84393 10.5726 8.00435 10.5726C8.1619 10.5726 8.30656 10.6098 8.43833 10.6843C8.5701 10.7588 8.67466 10.8591 8.752 10.9851C8.82935 11.1111 8.86802 11.2515 8.86802 11.4062C8.86802 11.5609 8.82935 11.7013 8.752 11.8273C8.67466 11.9562 8.5701 12.0579 8.43833 12.1324C8.30656 12.2069 8.1619 12.2441 8.00435 12.2441Z"
          fill="white" />
      </g>
    </symbol>

    <symbol id="icon-type-design" viewBox="0 0 16 17">
      <g clip-path="url(#clip0_type-design)">
        <circle cx="8" cy="8" r="8" fill="url(#pattern0_14_5992)" />
        <circle cx="8" cy="8" r="8" fill="#A346B2" />
        <path
          d="M8.33203 12.2148C8.92057 12.2148 9.4349 12.1484 9.875 12.0156C10.3151 11.8854 10.6576 11.7031 10.9023 11.4688C11.1471 11.2344 11.2695 10.9609 11.2695 10.6484C11.2695 10.4453 11.237 10.2786 11.1719 10.1484C11.1094 10.0156 11.0352 9.90234 10.9492 9.80859C10.8659 9.71224 10.7917 9.61849 10.7266 9.52734C10.6615 9.4362 10.6289 9.33464 10.6289 9.22266C10.6289 9.11589 10.6823 9.02083 10.7891 8.9375C10.8984 8.85417 11.0378 8.77083 11.207 8.6875C11.3789 8.60417 11.5599 8.51302 11.75 8.41406C11.9427 8.3125 12.1237 8.19141 12.293 8.05078C12.4648 7.91016 12.6042 7.74219 12.7109 7.54688C12.8203 7.34896 12.875 7.11068 12.875 6.83203C12.875 6.41797 12.7734 6.04297 12.5703 5.70703C12.3672 5.37109 12.0781 5.08203 11.7031 4.83984C11.3281 4.59766 10.8789 4.41146 10.3555 4.28125C9.83464 4.15104 9.25651 4.08594 8.62109 4.08594C7.79818 4.08594 7.05078 4.1862 6.37891 4.38672C5.70703 4.58464 5.1276 4.86589 4.64062 5.23047C4.15365 5.59505 3.77865 6.02995 3.51562 6.53516C3.25521 7.04036 3.125 7.59896 3.125 8.21094C3.125 8.8099 3.2487 9.35547 3.49609 9.84766C3.74609 10.3372 4.10156 10.7578 4.5625 11.1094C5.02344 11.4635 5.57292 11.7357 6.21094 11.9258C6.84896 12.1185 7.55599 12.2148 8.33203 12.2148ZM8.29297 10.6758C8.08464 10.6758 7.89583 10.625 7.72656 10.5234C7.55729 10.4219 7.42057 10.2865 7.31641 10.1172C7.21484 9.94531 7.16406 9.75521 7.16406 9.54688C7.16406 9.34115 7.21484 9.15365 7.31641 8.98438C7.42057 8.8125 7.55729 8.67578 7.72656 8.57422C7.89583 8.47266 8.08464 8.42188 8.29297 8.42188C8.5013 8.42188 8.6901 8.47266 8.85938 8.57422C9.03125 8.67578 9.16797 8.8125 9.26953 8.98438C9.37109 9.15365 9.42188 9.34115 9.42188 9.54688C9.42188 9.76042 9.3724 9.95312 9.27344 10.125C9.17448 10.2943 9.03906 10.4284 8.86719 10.5273C8.69792 10.6263 8.50651 10.6758 8.29297 10.6758ZM5.02344 8.72266C4.84115 8.72266 4.68359 8.65755 4.55078 8.52734C4.42057 8.39453 4.35547 8.23568 4.35547 8.05078C4.35547 7.8737 4.42188 7.72005 4.55469 7.58984C4.6875 7.45964 4.84375 7.39453 5.02344 7.39453C5.20573 7.39453 5.36068 7.45833 5.48828 7.58594C5.61849 7.71354 5.68359 7.86849 5.68359 8.05078C5.68359 8.23568 5.61849 8.39453 5.48828 8.52734C5.36068 8.65755 5.20573 8.72266 5.02344 8.72266ZM6.58984 7.29297C6.36068 7.29297 6.16406 7.21354 6 7.05469C5.83854 6.89583 5.75781 6.70052 5.75781 6.46875C5.75781 6.23958 5.83854 6.04688 6 5.89062C6.16406 5.73177 6.36068 5.65234 6.58984 5.65234C6.81641 5.65234 7.01042 5.73177 7.17188 5.89062C7.33594 6.04688 7.41797 6.23958 7.41797 6.46875C7.41797 6.70052 7.33594 6.89583 7.17188 7.05469C7.01042 7.21354 6.81641 7.29297 6.58984 7.29297ZM8.75 6.64453C8.5651 6.64453 8.40625 6.58073 8.27344 6.45312C8.14062 6.32292 8.07422 6.16406 8.07422 5.97656C8.07422 5.79167 8.14062 5.63411 8.27344 5.50391C8.40625 5.3737 8.5651 5.30859 8.75 5.30859C8.9349 5.30859 9.09245 5.3737 9.22266 5.50391C9.35286 5.63411 9.41797 5.79167 9.41797 5.97656C9.41797 6.16406 9.35286 6.32292 9.22266 6.45312C9.09245 6.58073 8.9349 6.64453 8.75 6.64453ZM10.6797 6.98047C10.5286 6.98047 10.3984 6.92839 10.2891 6.82422C10.1823 6.71745 10.1289 6.58854 10.1289 6.4375C10.1289 6.28646 10.1823 6.15755 10.2891 6.05078C10.3984 5.94401 10.5286 5.89062 10.6797 5.89062C10.8281 5.89062 10.9557 5.94531 11.0625 6.05469C11.1693 6.16406 11.2227 6.29167 11.2227 6.4375C11.2227 6.58333 11.1693 6.71094 11.0625 6.82031C10.9557 6.92708 10.8281 6.98047 10.6797 6.98047Z"
          fill="white" />
      </g>
    </symbol>

    <symbol id="icon-type-frontend" viewBox="0 0 16 17">
      <g clip-path="url(#clip0_type-frontend)">
        <circle cx="8" cy="8" r="8" fill="#52A7AC" />
        <path
          d="M2.04688 8.17969C2.04688 8.09115 2.06641 8.00261 2.10547 7.91407C2.14453 7.82553 2.20312 7.7461 2.28125 7.67579L4.66406 5.52735C4.80469 5.39974 4.95964 5.33985 5.12891 5.34766C5.30078 5.35287 5.44661 5.42188 5.56641 5.55469C5.6888 5.69011 5.74349 5.84375 5.73047 6.01563C5.72005 6.1849 5.64583 6.33204 5.50781 6.45704L3.60547 8.17969L5.50781 9.89844C5.64583 10.0234 5.72005 10.1719 5.73047 10.3438C5.74349 10.513 5.6888 10.6654 5.56641 10.8008C5.44661 10.9362 5.30078 11.0065 5.12891 11.0117C4.95964 11.0169 4.80469 10.9557 4.66406 10.8281L2.28125 8.67969C2.20312 8.60938 2.14453 8.53125 2.10547 8.44532C2.06641 8.35678 2.04688 8.26823 2.04688 8.17969ZM6.87891 12.0234C6.69922 11.974 6.57161 11.8737 6.49609 11.7227C6.42057 11.5716 6.41016 11.405 6.46484 11.2227L8.33984 4.79297C8.39453 4.60547 8.49479 4.47136 8.64062 4.39063C8.78906 4.3099 8.95182 4.29428 9.12891 4.34375C9.30599 4.39323 9.43359 4.49219 9.51172 4.64063C9.59245 4.78907 9.60547 4.95053 9.55078 5.125L7.67188 11.5742C7.61719 11.7565 7.51562 11.8893 7.36719 11.9727C7.21875 12.0586 7.05599 12.0755 6.87891 12.0234ZM13.9492 8.17969C13.9492 8.26823 13.9297 8.35678 13.8906 8.44532C13.8516 8.53125 13.793 8.60938 13.7148 8.67969L11.3359 10.8281C11.1927 10.9557 11.0352 11.0169 10.8633 11.0117C10.694 11.0065 10.5495 10.9362 10.4297 10.8008C10.3073 10.6654 10.2513 10.513 10.2617 10.3438C10.2747 10.1719 10.3503 10.0234 10.4883 9.89844L12.3906 8.17969L10.4883 6.45704C10.3503 6.33204 10.2747 6.1849 10.2617 6.01563C10.2513 5.84375 10.3073 5.69011 10.4297 5.55469C10.5495 5.42188 10.694 5.35287 10.8633 5.34766C11.0352 5.33985 11.1927 5.39974 11.3359 5.52735L13.7148 7.67579C13.793 7.7461 13.8516 7.82553 13.8906 7.91407C13.9297 8.00261 13.9492 8.09115 13.9492 8.17969Z"
          fill="white" />
      </g>
    </symbol>

    <symbol id="icon-type-qa" viewBox="0 0 16 17">
      <g clip-path="url(#clip0_type-qa)">
        <circle cx="8" cy="8" r="8" fill="#52B462" />
        <path
          d="M4.07031 7.50781C4.07031 7.96354 4.15495 8.39062 4.32422 8.78906C4.49609 9.1849 4.73307 9.53385 5.03516 9.83594C5.33724 10.138 5.6862 10.375 6.08203 10.5469C6.48047 10.7161 6.90755 10.8008 7.36328 10.8008C7.66276 10.8008 7.95052 10.7604 8.22656 10.6797C8.50521 10.599 8.76302 10.487 9 10.3438L10.5703 11.9141C10.6458 11.9896 10.7331 12.0456 10.832 12.082C10.931 12.1211 11.0339 12.1406 11.1406 12.1406C11.2917 12.1406 11.4258 12.1055 11.543 12.0352C11.6628 11.9648 11.7565 11.8698 11.8242 11.75C11.8919 11.6302 11.9258 11.4961 11.9258 11.3477C11.9258 11.2435 11.9062 11.1432 11.8672 11.0469C11.8307 10.9531 11.7747 10.8672 11.6992 10.7891L10.1484 9.23047C10.3073 8.98568 10.431 8.71745 10.5195 8.42578C10.6081 8.13411 10.6523 7.82812 10.6523 7.50781C10.6523 7.05469 10.5664 6.63021 10.3945 6.23438C10.2253 5.83594 9.98958 5.48568 9.6875 5.18359C9.38542 4.88151 9.03516 4.64583 8.63672 4.47656C8.24089 4.30469 7.81641 4.21875 7.36328 4.21875C6.90755 4.21875 6.48047 4.30469 6.08203 4.47656C5.6862 4.64583 5.33724 4.88151 5.03516 5.18359C4.73307 5.48568 4.49609 5.83594 4.32422 6.23438C4.15495 6.63021 4.07031 7.05469 4.07031 7.50781ZM5.18359 7.50781C5.18359 7.20833 5.23958 6.92708 5.35156 6.66406C5.46615 6.40104 5.6224 6.17057 5.82031 5.97266C6.02083 5.77214 6.2526 5.61589 6.51562 5.50391C6.77865 5.38932 7.0612 5.33203 7.36328 5.33203C7.66276 5.33203 7.94401 5.38932 8.20703 5.50391C8.47005 5.61589 8.70052 5.77214 8.89844 5.97266C9.09896 6.17057 9.25521 6.40104 9.36719 6.66406C9.48177 6.92708 9.53906 7.20833 9.53906 7.50781C9.53906 7.8099 9.48177 8.09245 9.36719 8.35547C9.25521 8.61849 9.09896 8.85026 8.89844 9.05078C8.70052 9.2487 8.47005 9.40495 8.20703 9.51953C7.94401 9.63151 7.66276 9.6875 7.36328 9.6875C7.0612 9.6875 6.77865 9.63151 6.51562 9.51953C6.2526 9.40495 6.02083 9.2487 5.82031 9.05078C5.6224 8.85026 5.46615 8.61849 5.35156 8.35547C5.23958 8.09245 5.18359 7.8099 5.18359 7.50781ZM6.32812 7.3125H8.42578C8.51172 7.3125 8.58333 7.28125 8.64062 7.21875C8.69792 7.15625 8.72656 7.08464 8.72656 7.00391C8.72656 6.91797 8.69792 6.84505 8.64062 6.78516C8.58333 6.72526 8.51172 6.69531 8.42578 6.69531H6.32812C6.23958 6.69531 6.16667 6.72526 6.10938 6.78516C6.05208 6.84505 6.02344 6.91797 6.02344 7.00391C6.02344 7.08464 6.05208 7.15625 6.10938 7.21875C6.16927 7.28125 6.24219 7.3125 6.32812 7.3125ZM6.32812 8.32031H7.82031C7.90365 8.32031 7.97396 8.29036 8.03125 8.23047C8.09115 8.16797 8.12109 8.09505 8.12109 8.01172C8.12109 7.92839 8.09115 7.85677 8.03125 7.79688C7.97396 7.73438 7.90365 7.70312 7.82031 7.70312H6.32812C6.23958 7.70312 6.16667 7.73438 6.10938 7.79688C6.05208 7.85677 6.02344 7.92839 6.02344 8.01172C6.02344 8.09505 6.05208 8.16797 6.10938 8.23047C6.16927 8.29036 6.24219 8.32031 6.32812 8.32031Z"
          fill="white" />
      </g>
    </symbol>

  </svg>