<svg width="16" height="16" viewBox="0 0 16 16" fill="none" xmlns="http://www.w3.org/2000/svg">
<path d="M3.25317 15.1828C2.43547 15.1828 1.82088 14.9797 1.40942 14.5734C1.00317 14.1724 0.800049 13.5682 0.800049 12.7609V3.22186C0.800049 2.41457 1.00317 1.8104 1.40942 1.40936C1.82088 1.00311 2.43547 0.799988 3.25317 0.799988H12.7297C13.5474 0.799988 14.1594 1.00311 14.5657 1.40936C14.9771 1.8104 15.1829 2.41457 15.1829 3.22186V12.7609C15.1829 13.5682 14.9771 14.1724 14.5657 14.5734C14.1594 14.9797 13.5474 15.1828 12.7297 15.1828H3.25317ZM3.2688 13.925H12.7141C13.0995 13.925 13.3964 13.8234 13.6047 13.6203C13.8183 13.412 13.925 13.1047 13.925 12.6984V3.28436C13.925 2.87811 13.8183 2.57343 13.6047 2.3703C13.3964 2.16197 13.0995 2.0578 12.7141 2.0578H3.2688C2.87817 2.0578 2.57869 2.16197 2.37036 2.3703C2.16203 2.57343 2.05786 2.87811 2.05786 3.28436V12.6984C2.05786 13.1047 2.16203 13.412 2.37036 13.6203C2.57869 13.8234 2.87817 13.925 3.2688 13.925ZM7.1438 11.6828C7.01359 11.6828 6.8938 11.6542 6.78442 11.5969C6.68026 11.5396 6.57869 11.4484 6.47974 11.3234L4.57349 8.97968C4.45369 8.81822 4.3938 8.65676 4.3938 8.4953C4.3938 8.32343 4.45109 8.17759 4.56567 8.0578C4.68547 7.9328 4.82869 7.8703 4.99536 7.8703C5.10474 7.8703 5.20369 7.89374 5.29224 7.94061C5.38599 7.98228 5.47974 8.06561 5.57349 8.19061L7.11255 10.1828L10.3547 4.97968C10.5006 4.7453 10.6829 4.62811 10.9016 4.62811C11.0631 4.62811 11.2089 4.6802 11.3391 4.78436C11.4693 4.88853 11.5344 5.02655 11.5344 5.19843C11.5344 5.28697 11.5136 5.37551 11.4719 5.46405C11.4355 5.54738 11.3938 5.62551 11.3469 5.69843L7.77661 11.3234C7.62036 11.563 7.40942 11.6828 7.1438 11.6828Z" fill="#7E7E7E"/>
</svg>
