<svg width="16" height="16" viewBox="0 0 16 16" fill="none" xmlns="http://www.w3.org/2000/svg">
<path d="M3.52344 15.1828C2.7526 15.1828 2.16667 14.9875 1.76562 14.5969C1.36458 14.2062 1.16406 13.6255 1.16406 12.8547V4.51093H2.42188V12.9172C2.42188 13.2661 2.51562 13.5344 2.70312 13.7219C2.89062 13.9094 3.15885 14.0031 3.50781 14.0031H12.1094C12.4531 14.0031 12.7188 13.9094 12.9062 13.7219C13.099 13.5344 13.1953 13.2661 13.1953 12.9172V4.51093H14.4531V12.8547C14.4531 13.6203 14.2526 14.1984 13.8516 14.5891C13.4505 14.9849 12.8646 15.1828 12.0938 15.1828H3.52344ZM5.23438 8.2453C5.06771 8.2453 4.93229 8.19322 4.82812 8.08905C4.72917 7.98488 4.67969 7.84686 4.67969 7.67499V7.42499C4.67969 7.25311 4.72917 7.1177 4.82812 7.01874C4.93229 6.91457 5.06771 6.86249 5.23438 6.86249H10.3906C10.5573 6.86249 10.6927 6.91457 10.7969 7.01874C10.901 7.1177 10.9531 7.25311 10.9531 7.42499V7.67499C10.9531 7.84686 10.901 7.98488 10.7969 8.08905C10.6927 8.19322 10.5573 8.2453 10.3906 8.2453H5.23438ZM1.48438 5.09686C1.00521 5.09686 0.638021 4.95624 0.382812 4.67499C0.127604 4.39374 0 4.01613 0 3.54218V2.35468C0 1.87551 0.132812 1.4979 0.398438 1.22186C0.664062 0.940613 1.02604 0.799988 1.48438 0.799988H14.1328C14.612 0.799988 14.9792 0.940613 15.2344 1.22186C15.4896 1.4979 15.6172 1.87551 15.6172 2.35468V3.54218C15.6172 4.01613 15.4896 4.39374 15.2344 4.67499C14.9792 4.95624 14.612 5.09686 14.1328 5.09686H1.48438ZM1.80469 3.91718H13.8203C14.0182 3.91718 14.1562 3.8729 14.2344 3.78436C14.3177 3.69582 14.3594 3.5552 14.3594 3.36249V2.53436C14.3594 2.33645 14.3177 2.19582 14.2344 2.11249C14.1562 2.02395 14.0182 1.97968 13.8203 1.97968H1.80469C1.60677 1.97968 1.46615 2.02395 1.38281 2.11249C1.29948 2.19582 1.25781 2.33645 1.25781 2.53436V3.36249C1.25781 3.5552 1.29948 3.69582 1.38281 3.78436C1.46615 3.8729 1.60677 3.91718 1.80469 3.91718Z" fill="#7E7E7E"/>
</svg>
