<svg width="16" height="16" viewBox="0 0 16 16" fill="none" xmlns="http://www.w3.org/2000/svg">
<path d="M0.800049 7.64099C0.800049 7.47693 0.848877 7.34021 0.946533 7.23083C1.0481 7.11755 1.19849 7.04529 1.39771 7.01404C1.76099 6.95935 2.02075 6.82654 2.177 6.6156C2.33325 6.40466 2.41138 6.06482 2.41138 5.59607V3.94373C2.41138 3.15466 2.59497 2.56677 2.96216 2.18005C3.32935 1.79333 3.89575 1.59998 4.66138 1.59998C4.77856 1.59998 4.87817 1.61365 4.96021 1.64099C5.05786 1.67615 5.13208 1.72888 5.18286 1.79919C5.23755 1.8656 5.26489 1.95154 5.26489 2.05701C5.26489 2.26013 5.17896 2.39099 5.00708 2.44958C4.97583 2.4613 4.94067 2.47107 4.90161 2.47888C4.86255 2.48279 4.81958 2.48669 4.77271 2.4906C4.28052 2.52576 3.93286 2.66052 3.72974 2.8949C3.53052 3.12927 3.43091 3.51794 3.43091 4.06091V6.01208C3.43091 6.50818 3.30591 6.89294 3.05591 7.16638C2.80591 7.43982 2.45239 7.59802 1.99536 7.64099C1.98755 7.64099 1.98364 7.6449 1.98364 7.65271C1.98364 7.66052 1.98755 7.66443 1.99536 7.66443C2.45239 7.7074 2.80591 7.8656 3.05591 8.13904C3.30591 8.41248 3.43091 8.79724 3.43091 9.29333V11.2386C3.43091 11.7816 3.53052 12.1703 3.72974 12.4047C3.93286 12.6429 4.28052 12.7797 4.77271 12.8148C4.80786 12.8148 4.83911 12.8168 4.86646 12.8207C4.89771 12.8285 4.92896 12.8363 4.96021 12.8441C5.16333 12.8949 5.26489 13.0277 5.26489 13.2426C5.26489 13.3402 5.2395 13.4242 5.18872 13.4945C5.14185 13.5648 5.07349 13.6195 4.98364 13.6586C4.90161 13.6859 4.81372 13.6996 4.71997 13.6996C3.93091 13.6996 3.34888 13.5082 2.97388 13.1254C2.59888 12.7426 2.41138 12.1527 2.41138 11.3558V9.70935C2.41138 9.23669 2.33325 8.8949 2.177 8.68396C2.02075 8.47302 1.76099 8.34021 1.39771 8.28552C1.19849 8.25037 1.0481 8.1781 0.946533 8.06873C0.848877 7.95544 0.800049 7.81287 0.800049 7.64099ZM15.5247 7.64099C15.5247 7.81287 15.4739 7.95544 15.3723 8.06873C15.2747 8.1781 15.1243 8.25037 14.9211 8.28552C14.5579 8.34021 14.2981 8.47302 14.1418 8.68396C13.9856 8.8949 13.9075 9.23669 13.9075 9.70935V11.3558C13.9075 12.1527 13.72 12.7426 13.345 13.1254C12.9739 13.5082 12.3918 13.6996 11.5989 13.6996C11.509 13.6996 11.4231 13.6859 11.3411 13.6586C11.2473 13.6195 11.175 13.5648 11.1243 13.4945C11.0774 13.4242 11.054 13.3402 11.054 13.2426C11.054 13.0277 11.1575 12.8949 11.3645 12.8441C11.3918 12.8363 11.4192 12.8285 11.4465 12.8207C11.4778 12.8168 11.511 12.8148 11.5461 12.8148C12.0383 12.7797 12.386 12.6429 12.5891 12.4047C12.7922 12.1703 12.8938 11.7816 12.8938 11.2386V9.29333C12.8938 8.79724 13.0168 8.41248 13.2629 8.13904C13.5129 7.8656 13.8665 7.7074 14.3235 7.66443C14.3313 7.66443 14.3352 7.66052 14.3352 7.65271C14.3352 7.6449 14.3313 7.64099 14.3235 7.64099C13.8665 7.59802 13.5129 7.43982 13.2629 7.16638C13.0168 6.89294 12.8938 6.50818 12.8938 6.01208V4.06091C12.8938 3.51794 12.7922 3.12927 12.5891 2.8949C12.386 2.66052 12.0383 2.52576 11.5461 2.4906C11.4993 2.48669 11.4563 2.48279 11.4172 2.47888C11.3782 2.47107 11.345 2.4613 11.3176 2.44958C11.1418 2.39099 11.054 2.26013 11.054 2.05701C11.054 1.95154 11.0793 1.8656 11.1301 1.79919C11.1848 1.72888 11.2629 1.67615 11.3645 1.64099C11.4465 1.61365 11.5442 1.59998 11.6575 1.59998C12.4231 1.59998 12.9895 1.79333 13.3567 2.18005C13.7239 2.56677 13.9075 3.15466 13.9075 3.94373V5.59607C13.9075 6.06482 13.9856 6.40466 14.1418 6.6156C14.2981 6.82654 14.5579 6.95935 14.9211 7.01404C15.1243 7.04529 15.2747 7.11755 15.3723 7.23083C15.4739 7.34021 15.5247 7.47693 15.5247 7.64099ZM5.4231 8.48474C5.18872 8.48474 4.98755 8.40271 4.81958 8.23865C4.65552 8.07068 4.57349 7.87146 4.57349 7.64099C4.57349 7.40662 4.65552 7.2074 4.81958 7.04333C4.98755 6.87537 5.18872 6.79138 5.4231 6.79138C5.65356 6.79138 5.85278 6.87537 6.02075 7.04333C6.18872 7.2074 6.27271 7.40662 6.27271 7.64099C6.27271 7.87146 6.18872 8.07068 6.02075 8.23865C5.85669 8.40271 5.65747 8.48474 5.4231 8.48474ZM8.15356 8.48474C7.9231 8.48474 7.72388 8.40271 7.55591 8.23865C7.39185 8.07068 7.30981 7.87146 7.30981 7.64099C7.30981 7.40662 7.39185 7.2074 7.55591 7.04333C7.72388 6.87537 7.9231 6.79138 8.15356 6.79138C8.38794 6.79138 8.58716 6.87537 8.75122 7.04333C8.91919 7.2074 9.00317 7.40662 9.00317 7.64099C9.00317 7.87146 8.91919 8.07068 8.75122 8.23865C8.58716 8.40271 8.38794 8.48474 8.15356 8.48474ZM10.8899 8.48474C10.6555 8.48474 10.4543 8.40271 10.2864 8.23865C10.1223 8.07068 10.0403 7.87146 10.0403 7.64099C10.0403 7.40662 10.1223 7.2074 10.2864 7.04333C10.4543 6.87537 10.6555 6.79138 10.8899 6.79138C11.1243 6.79138 11.3235 6.87537 11.4875 7.04333C11.6555 7.2074 11.7395 7.40662 11.7395 7.64099C11.7395 7.87146 11.6555 8.07068 11.4875 8.23865C11.3235 8.40271 11.1243 8.48474 10.8899 8.48474Z" fill="#7E7E7E"/>
</svg>
