<svg width="16" height="16" viewBox="0 0 16 16" fill="none" xmlns="http://www.w3.org/2000/svg">
<path d="M0.800049 4.91718V3.22186C0.800049 2.41457 1.00317 1.8104 1.40942 1.40936C1.82088 1.00311 2.43547 0.799988 3.25317 0.799988H4.88599V2.0578H3.2688C2.87817 2.0578 2.57869 2.16197 2.37036 2.3703C2.16203 2.57343 2.05786 2.87811 2.05786 3.28436V4.91718H0.800049ZM5.9563 2.0578V0.799988H10.0266V2.0578H5.9563ZM13.925 4.91718V3.28436C13.925 2.87811 13.8183 2.57343 13.6047 2.3703C13.3964 2.16197 13.0995 2.0578 12.7141 2.0578H11.0969V0.799988H12.7297C13.5474 0.799988 14.1594 1.00311 14.5657 1.40936C14.9771 1.8104 15.1829 2.41457 15.1829 3.22186V4.91718H13.925ZM13.925 9.9953V5.98749H15.1829V9.9953H13.925ZM11.0969 15.1828V13.925H12.7141C13.0995 13.925 13.3964 13.8234 13.6047 13.6203C13.8183 13.412 13.925 13.1047 13.925 12.6984V11.0656H15.1829V12.7609C15.1829 13.5682 14.9771 14.1724 14.5657 14.5734C14.1594 14.9797 13.5474 15.1828 12.7297 15.1828H11.0969ZM5.9563 15.1828V13.925H10.0266V15.1828H5.9563ZM3.25317 15.1828C2.43547 15.1828 1.82088 14.9797 1.40942 14.5734C1.00317 14.1724 0.800049 13.5682 0.800049 12.7609V11.0656H2.05786V12.6984C2.05786 13.1047 2.16203 13.412 2.37036 13.6203C2.57869 13.8234 2.87817 13.925 3.2688 13.925H4.88599V15.1828H3.25317ZM0.800049 9.9953V5.98749H2.05786V9.9953H0.800049ZM7.84692 9.59686C7.43026 9.59686 7.22192 9.39113 7.22192 8.97968C7.22192 8.96405 7.22192 8.94843 7.22192 8.9328C7.22192 8.91197 7.22192 8.89374 7.22192 8.87811C7.22192 8.4927 7.31307 8.1828 7.49536 7.94843C7.68286 7.71405 7.91724 7.50051 8.19849 7.3078C8.54224 7.06822 8.79744 6.86509 8.96411 6.69843C9.13078 6.52655 9.21411 6.3078 9.21411 6.04218C9.21411 5.7453 9.10734 5.50572 8.8938 5.32343C8.68026 5.13593 8.3938 5.04218 8.03442 5.04218C7.86255 5.04218 7.70109 5.07082 7.55005 5.12811C7.40422 5.1854 7.2714 5.26874 7.15161 5.37811C7.03182 5.48228 6.92505 5.60988 6.8313 5.76093L6.69067 5.94843C6.62297 6.04218 6.54224 6.1177 6.44849 6.17499C6.35994 6.23228 6.25057 6.26093 6.12036 6.26093C5.99015 6.26093 5.86776 6.21665 5.75317 6.12811C5.63859 6.03436 5.5813 5.89895 5.5813 5.72186C5.5813 5.65415 5.58651 5.58905 5.59692 5.52655C5.60734 5.46405 5.62297 5.40155 5.6438 5.33905C5.75317 4.97968 6.0188 4.66457 6.44067 4.39374C6.86776 4.1177 7.41724 3.97968 8.08911 3.97968C8.53182 3.97968 8.94067 4.0578 9.31567 4.21405C9.69067 4.36509 9.99276 4.58905 10.2219 4.88593C10.4563 5.1828 10.5735 5.54738 10.5735 5.97968C10.5735 6.44843 10.4511 6.81822 10.2063 7.08905C9.96151 7.35988 9.65161 7.6203 9.27661 7.8703C9.00057 8.05259 8.79744 8.22447 8.66724 8.38593C8.53703 8.54218 8.47192 8.72968 8.47192 8.94843C8.47192 8.95884 8.47192 8.97447 8.47192 8.9953C8.47192 9.01093 8.47192 9.02655 8.47192 9.04218C8.47192 9.19322 8.41463 9.32343 8.30005 9.4328C8.19067 9.54218 8.03963 9.59686 7.84692 9.59686ZM7.82349 11.925C7.59953 11.925 7.40422 11.8469 7.23755 11.6906C7.07088 11.5292 6.98755 11.3364 6.98755 11.1125C6.98755 10.8885 7.06828 10.6984 7.22974 10.5422C7.3964 10.3807 7.59432 10.3 7.82349 10.3C8.05265 10.3 8.25057 10.3781 8.41724 10.5344C8.5839 10.6906 8.66724 10.8833 8.66724 11.1125C8.66724 11.3417 8.5839 11.5344 8.41724 11.6906C8.25057 11.8469 8.05265 11.925 7.82349 11.925Z" fill="#7E7E7E"/>
</svg>
