<svg width="16" height="16" viewBox="0 0 16 16" fill="none" xmlns="http://www.w3.org/2000/svg">
<path fill-rule="evenodd" clip-rule="evenodd" d="M3.25293 15.1829C2.43522 15.1829 1.82064 14.9797 1.40918 14.5735C1.00293 14.1724 0.799805 13.5683 0.799805 12.761V3.22192C0.799805 2.41463 1.00293 1.81047 1.40918 1.40942C1.82064 1.00317 2.43522 0.800049 3.25293 0.800049H12.7295C13.5472 0.800049 14.1592 1.00317 14.5654 1.40942C14.9769 1.81047 15.1826 2.41463 15.1826 3.22192V12.761C15.1826 13.5683 14.9769 14.1724 14.5654 14.5735C14.1592 14.9797 13.5472 15.1829 12.7295 15.1829H3.25293ZM3.26855 13.925H12.7139C13.0993 13.925 13.3962 13.8235 13.6045 13.6204C13.818 13.412 13.9248 13.1047 13.9248 12.6985V3.28442C13.9248 2.87817 13.818 2.57349 13.6045 2.37036C13.3962 2.16203 13.0993 2.05786 12.7139 2.05786H3.26855C2.87793 2.05786 2.57845 2.16203 2.37012 2.37036C2.16178 2.57349 2.05762 2.87817 2.05762 3.28442V12.6985C2.05762 13.1047 2.16178 13.412 2.37012 13.6204C2.57845 13.8235 2.87793 13.925 3.26855 13.925ZM3.94721 9.22361C4.38041 8.35722 4.96022 7.70325 5.61403 7.25357C5.53858 7.49476 5.5 7.74642 5.5 8C5.5 8.3283 5.56466 8.65339 5.6903 8.95671C5.81594 9.26002 6.00009 9.53562 6.23223 9.76777C6.46438 9.99991 6.73998 10.1841 7.04329 10.3097C7.34661 10.4353 7.6717 10.5 8 10.5C8.66304 10.5 9.29893 10.2366 9.76777 9.76777C10.2366 9.29893 10.5 8.66304 10.5 8C10.5 7.74449 10.4609 7.49302 10.386 7.25358C11.0398 7.70325 11.6196 8.35722 12.0528 9.22361C12.1763 9.4706 12.4766 9.57071 12.7236 9.44721C12.9706 9.32372 13.0707 9.02338 12.9472 8.77639C11.8681 6.61817 9.95156 5.5 8 5.5C6.04844 5.5 4.1319 6.61817 3.05279 8.77639C2.92929 9.02338 3.0294 9.32372 3.27639 9.44721C3.52338 9.57071 3.82372 9.4706 3.94721 9.22361ZM7.42597 6.61418C7.60796 6.5388 7.80302 6.5 8 6.5C8.39783 6.5 8.77936 6.65804 9.06066 6.93934C9.34196 7.22064 9.5 7.60217 9.5 8C9.5 8.39783 9.34196 8.77936 9.06066 9.06066C8.77936 9.34196 8.39783 9.5 8 9.5C7.80302 9.5 7.60796 9.4612 7.42597 9.38582C7.24399 9.31044 7.07863 9.19995 6.93934 9.06066C6.80005 8.92137 6.68956 8.75601 6.61418 8.57403C6.5388 8.39204 6.5 8.19698 6.5 8C6.5 7.80302 6.5388 7.60796 6.61418 7.42597C6.68956 7.24399 6.80005 7.07863 6.93934 6.93934C7.07863 6.80005 7.24399 6.68956 7.42597 6.61418Z" fill="#7E7E7E"/>
</svg>
